<svg xmlns="http://www.w3.org/2000/svg" viewBox="0 0 1800 4200" width="1800" height="4200">

<!-- TITLE BAR -->
<rect width="1800" height="70" fill="#0d0d0d"/>
<text x="900" y="42" font-family="'Courier Prime','American Typewriter','Courier New',monospace" font-size="16" fill="#F7BB2E" text-anchor="middle" letter-spacing="6">WEBHOUSE.APP — BRAND IDENTITY SYSTEM — 2026</text>

<!-- ============ 01 PRIMARY LOGOS ============ -->
<text x="100" y="120" font-family="'Courier Prime','American Typewriter',monospace" font-size="14" fill="#999" letter-spacing="4">01 — PRIMARY LOGOS</text>
<line x1="100" y1="135" x2="1700" y2="135" stroke="#e0e0e0" stroke-width="1"/>

<!-- Stacked Light -->
<rect x="60" y="160" width="380" height="480" rx="16" fill="#ffffff" stroke="#eee" stroke-width="1"/>
<text x="250" y="190" font-family="'SF Mono',monospace" font-size="10" fill="#bbb" text-anchor="middle" letter-spacing="2">STACKED · LIGHT</text>
<g transform="translate(135,210) scale(0.62649)">
  <path fill="#1c1c1c" d="M167.6,0C87.6,0,7.6,48,7.6,144s48,169.6,112,192c32,9.6,48-9.6,48-41.6"/>
  <path fill="#0d0d0d" d="M7.6,144c-16,48-6.4,118.4,25.6,156.8,25.6,25.6,64,38.4,86.4,35.2"/>
  <path fill="#f7bb2e" d="M167.6,0c80,0,160,48,160,144s-48,169.6-112,192c-32,9.6-48-9.6-48-41.6"/>
  <path fill="#d9a11a" d="M327.6,144c16,48,6.4,118.4-25.6,156.8-25.6,25.6-64,38.4-86.4,35.2"/>
  <path fill="#fff" d="M52.4,160c38.4-59.73,76.8-89.6,115.2-89.6s76.8,29.87,115.2,89.6c-38.4,59.73-76.8,89.6-115.2,89.6s-76.8-29.87-115.2-89.6Z"/>
  <circle fill="#f7bb2e" cx="167.6" cy="160" r="48"/>
  <circle fill="#0d0d0d" cx="167.6" cy="160" r="20.8"/>
  <circle fill="#fff" opacity=".9" cx="180.4" cy="147.2" r="8.96"/>
  <circle fill="#fff" opacity=".3" cx="158" cy="171.2" r="4.16"/></g>
<g transform="translate(75,440) scale(0.29394)">
    <path fill="#fff" d="M1054.41,255.2H68.28C30.54,255.2,0,232.3,0,204.1V51.2C0,23,30.54,0,68.28,0h986.14c37.74,0,68.28,22.9,68.28,51.2v152.8c0,28.3-30.54,51.2-68.28,51.2Z"/>
    <path fill="#000" d="M283.1,139.3h-50.4c1.9,8.3,8.9,13.4,19.1,13.4,7.1,0,12.1-2.1,16.7-6.4l10.3,11.1c-6.2,7.1-15.5,10.8-27.5,10.8-23,0-38-14.5-38-34.3s15.2-34.3,35.5-34.3,34.7,13.1,34.7,34.5c-.1,1.5-.3,3.6-.4,5.2ZM232.4,128h32.8c-1.4-8.4-7.7-13.9-16.3-13.9s-15.1,5.4-16.5,13.9Z"/><path fill="#000" d="M366.8,133.8c0,20.9-14.5,34.3-33.2,34.3-8.9,0-16.1-2.8-20.9-8.7v7.7h-18.4v-91.9h19.3v32.3c5-5.4,11.8-8,20.1-8,18.6,0,33.1,13.4,33.1,34.3ZM347.2,133.8c0-11.5-7.3-18.4-17-18.4s-17,6.9-17,18.4,7.3,18.4,17,18.4c9.7.1,17-6.9,17-18.4Z"/><path fill="#000" d="M445.7,129v38.1h-19.3v-35.1c0-10.8-5-15.7-13.5-15.7-9.3,0-16,5.7-16,18v32.9h-19.3v-91.9h19.3v32.2c5.2-5.2,12.6-7.9,21.2-7.9,15.7-.1,27.6,9.1,27.6,29.4Z"/><path fill="#000" d="M454.8,133.8c0-20.1,15.5-34.3,36.6-34.3s36.5,14.2,36.5,34.3-15.4,34.3-36.5,34.3c-21.1,0-36.6-14.2-36.6-34.3ZM508.4,133.8c0-11.5-7.3-18.4-17-18.4s-17.1,6.9-17.1,18.4,7.4,18.4,17.1,18.4c9.7.1,17-6.9,17-18.4Z"/><path fill="#000" d="M603.9,100.5v66.6h-18.3v-7.9c-5.1,5.8-12.5,8.9-20.7,8.9-16.7,0-28.5-9.4-28.5-30v-37.6h19.3v34.8c0,11.1,5,16.1,13.5,16.1s15.4-5.7,15.4-18v-32.9h19.3Z"/><path fill="#000" d="M615.4,160.9l6.4-13.9c5.9,3.8,15,6.4,23.2,6.4,8.9,0,12.3-2.4,12.3-6.1,0-10.9-40.2.2-40.2-26.4,0-12.6,11.4-21.5,30.8-21.5,9.2,0,19.3,2.1,25.6,5.8l-6.4,13.7c-6.6-3.7-13.1-5-19.2-5-8.7,0-12.4,2.7-12.4,6.2,0,11.4,40.2.4,40.2,26.6,0,12.4-11.5,21.2-31.4,21.2-11.3.2-22.7-2.9-28.9-7Z"/><path fill="#000" d="M752.4,139.3h-50.4c1.9,8.3,8.9,13.4,19.1,13.4,7.1,0,12.1-2.1,16.7-6.4l10.3,11.1c-6.2,7.1-15.5,10.8-27.5,10.8-23,0-38-14.5-38-34.3s15.2-34.3,35.5-34.3,34.7,13.1,34.7,34.5c0,1.5-.2,3.6-.4,5.2ZM701.8,128h32.8c-1.4-8.4-7.7-13.9-16.3-13.9s-15.1,5.4-16.5,13.9Z"/><path fill="#000" d="M203.6,94.9v39.8c0,21.2-11.9,33.4-33.5,33.4-9.9,0-18.1-2.7-23.7-10.2-5.5,7.2-13.4,10.2-23.9,10.2-21.7,0-33.4-12.2-33.4-33.4v-39.8h20.9v38.2c0,11.9,3.9,17.4,12.7,17.4s13.1-5.5,13.1-17.4v-38.2h20.9v38.2c0,11.9,4.3,17.4,13.1,17.4s12.7-5.5,12.7-17.4v-38.2h21.1Z"/>
    <path fill="#f5ba2b" d="M764.05,157.7c0-7.25,5.38-12,12.12-12s12.12,4.75,12.12,12-5.38,12.25-12.12,12.25-12.12-5.12-12.12-12.25Z"/><path fill="#f5ba2b" d="M868.93,101.7v67.25h-18.62v-7.75c-4.88,5.88-12,8.75-21,8.75-19,0-33.62-13.5-33.62-34.62s14.62-34.63,33.62-34.63c8.25,0,15.25,2.62,20.12,8.12v-7.12h19.5ZM849.8,135.32c0-11.63-7.5-18.63-17.12-18.63s-17.25,7-17.25,18.63,7.5,18.62,17.25,18.62,17.12-7,17.12-18.62Z"/><path fill="#f5ba2b" d="M956.42,135.32c0,21.12-14.62,34.62-33.5,34.62-8.38,0-15.25-2.62-20.25-8.12v31.38h-19.5v-91.5h18.62v7.75c4.88-5.88,12.12-8.75,21.12-8.75,18.88,0,33.5,13.5,33.5,34.63ZM936.67,135.32c0-11.63-7.38-18.63-17.12-18.63s-17.12,7-17.12,18.63,7.38,18.62,17.12,18.62,17.12-7,17.12-18.62Z"/><path fill="#f5ba2b" d="M1038.92,135.32c0,21.12-14.62,34.62-33.5,34.62-8.38,0-15.25-2.62-20.25-8.12v31.38h-19.5v-91.5h18.62v7.75c4.88-5.88,12.12-8.75,21.12-8.75,18.88,0,33.5,13.5,33.5,34.63ZM1019.17,135.32c0-11.63-7.38-18.63-17.12-18.63s-17.12,7-17.12,18.63,7.38,18.62,17.12,18.62,17.12-7,17.12-18.62Z"/>
  </g>
<text x="250" y="560" font-family="'Courier Prime','American Typewriter',monospace" font-size="13" fill="#0d0d0d" text-anchor="middle" letter-spacing="3" opacity="0.18">AI-native content engine</text>

<!-- Stacked Dark -->
<rect x="480" y="160" width="380" height="480" rx="16" fill="#0d0d0d"/>
<text x="670" y="190" font-family="'SF Mono',monospace" font-size="10" fill="#444" text-anchor="middle" letter-spacing="2">STACKED · DARK</text>
<g transform="translate(555,210) scale(0.62649)">
  <path fill="#2a2a3e" d="M167.6,0C87.6,0,7.6,48,7.6,144s48,169.6,112,192c32,9.6,48-9.6,48-41.6"/>
  <path fill="#212135" d="M7.6,144c-16,48-6.4,118.4,25.6,156.8,25.6,25.6,64,38.4,86.4,35.2"/>
  <path fill="#f7bb2e" d="M167.6,0c80,0,160,48,160,144s-48,169.6-112,192c-32,9.6-48-9.6-48-41.6"/>
  <path fill="#d9a11a" d="M327.6,144c16,48,6.4,118.4-25.6,156.8-25.6,25.6-64,38.4-86.4,35.2"/>
  <path fill="#fff" d="M52.4,160c38.4-59.73,76.8-89.6,115.2-89.6s76.8,29.87,115.2,89.6c-38.4,59.73-76.8,89.6-115.2,89.6s-76.8-29.87-115.2-89.6Z"/>
  <circle fill="#f7bb2e" cx="167.6" cy="160" r="48"/>
  <circle fill="#0d0d0d" cx="167.6" cy="160" r="20.8"/>
  <circle fill="#fff" opacity=".9" cx="180.4" cy="147.2" r="8.96"/>
  <circle fill="#fff" opacity=".3" cx="158" cy="171.2" r="4.16"/></g>
<g transform="translate(495,440) scale(0.29394)">
    <path fill="#0d0d0d" d="M1054.41,255.2H68.28C30.54,255.2,0,232.3,0,204.1V51.2C0,23,30.54,0,68.28,0h986.14c37.74,0,68.28,22.9,68.28,51.2v152.8c0,28.3-30.54,51.2-68.28,51.2Z"/>
    <path fill="#fff" d="M283.1,139.3h-50.4c1.9,8.3,8.9,13.4,19.1,13.4,7.1,0,12.1-2.1,16.7-6.4l10.3,11.1c-6.2,7.1-15.5,10.8-27.5,10.8-23,0-38-14.5-38-34.3s15.2-34.3,35.5-34.3,34.7,13.1,34.7,34.5c-.1,1.5-.3,3.6-.4,5.2ZM232.4,128h32.8c-1.4-8.4-7.7-13.9-16.3-13.9s-15.1,5.4-16.5,13.9Z"/><path fill="#fff" d="M366.8,133.8c0,20.9-14.5,34.3-33.2,34.3-8.9,0-16.1-2.8-20.9-8.7v7.7h-18.4v-91.9h19.3v32.3c5-5.4,11.8-8,20.1-8,18.6,0,33.1,13.4,33.1,34.3ZM347.2,133.8c0-11.5-7.3-18.4-17-18.4s-17,6.9-17,18.4,7.3,18.4,17,18.4c9.7.1,17-6.9,17-18.4Z"/><path fill="#fff" d="M445.7,129v38.1h-19.3v-35.1c0-10.8-5-15.7-13.5-15.7-9.3,0-16,5.7-16,18v32.9h-19.3v-91.9h19.3v32.2c5.2-5.2,12.6-7.9,21.2-7.9,15.7-.1,27.6,9.1,27.6,29.4Z"/><path fill="#fff" d="M454.8,133.8c0-20.1,15.5-34.3,36.6-34.3s36.5,14.2,36.5,34.3-15.4,34.3-36.5,34.3c-21.1,0-36.6-14.2-36.6-34.3ZM508.4,133.8c0-11.5-7.3-18.4-17-18.4s-17.1,6.9-17.1,18.4,7.4,18.4,17.1,18.4c9.7.1,17-6.9,17-18.4Z"/><path fill="#fff" d="M603.9,100.5v66.6h-18.3v-7.9c-5.1,5.8-12.5,8.9-20.7,8.9-16.7,0-28.5-9.4-28.5-30v-37.6h19.3v34.8c0,11.1,5,16.1,13.5,16.1s15.4-5.7,15.4-18v-32.9h19.3Z"/><path fill="#fff" d="M615.4,160.9l6.4-13.9c5.9,3.8,15,6.4,23.2,6.4,8.9,0,12.3-2.4,12.3-6.1,0-10.9-40.2.2-40.2-26.4,0-12.6,11.4-21.5,30.8-21.5,9.2,0,19.3,2.1,25.6,5.8l-6.4,13.7c-6.6-3.7-13.1-5-19.2-5-8.7,0-12.4,2.7-12.4,6.2,0,11.4,40.2.4,40.2,26.6,0,12.4-11.5,21.2-31.4,21.2-11.3.2-22.7-2.9-28.9-7Z"/><path fill="#fff" d="M752.4,139.3h-50.4c1.9,8.3,8.9,13.4,19.1,13.4,7.1,0,12.1-2.1,16.7-6.4l10.3,11.1c-6.2,7.1-15.5,10.8-27.5,10.8-23,0-38-14.5-38-34.3s15.2-34.3,35.5-34.3,34.7,13.1,34.7,34.5c0,1.5-.2,3.6-.4,5.2ZM701.8,128h32.8c-1.4-8.4-7.7-13.9-16.3-13.9s-15.1,5.4-16.5,13.9Z"/><path fill="#fff" d="M203.6,94.9v39.8c0,21.2-11.9,33.4-33.5,33.4-9.9,0-18.1-2.7-23.7-10.2-5.5,7.2-13.4,10.2-23.9,10.2-21.7,0-33.4-12.2-33.4-33.4v-39.8h20.9v38.2c0,11.9,3.9,17.4,12.7,17.4s13.1-5.5,13.1-17.4v-38.2h20.9v38.2c0,11.9,4.3,17.4,13.1,17.4s12.7-5.5,12.7-17.4v-38.2h21.1Z"/>
    <path fill="#f5ba2b" d="M764.05,157.7c0-7.25,5.38-12,12.12-12s12.12,4.75,12.12,12-5.38,12.25-12.12,12.25-12.12-5.12-12.12-12.25Z"/><path fill="#f5ba2b" d="M868.93,101.7v67.25h-18.62v-7.75c-4.88,5.88-12,8.75-21,8.75-19,0-33.62-13.5-33.62-34.62s14.62-34.63,33.62-34.63c8.25,0,15.25,2.62,20.12,8.12v-7.12h19.5ZM849.8,135.32c0-11.63-7.5-18.63-17.12-18.63s-17.25,7-17.25,18.63,7.5,18.62,17.25,18.62,17.12-7,17.12-18.62Z"/><path fill="#f5ba2b" d="M956.42,135.32c0,21.12-14.62,34.62-33.5,34.62-8.38,0-15.25-2.62-20.25-8.12v31.38h-19.5v-91.5h18.62v7.75c4.88-5.88,12.12-8.75,21.12-8.75,18.88,0,33.5,13.5,33.5,34.63ZM936.67,135.32c0-11.63-7.38-18.63-17.12-18.63s-17.12,7-17.12,18.63,7.38,18.62,17.12,18.62,17.12-7,17.12-18.62Z"/><path fill="#f5ba2b" d="M1038.92,135.32c0,21.12-14.62,34.62-33.5,34.62-8.38,0-15.25-2.62-20.25-8.12v31.38h-19.5v-91.5h18.62v7.75c4.88-5.88,12.12-8.75,21.12-8.75,18.88,0,33.5,13.5,33.5,34.63ZM1019.17,135.32c0-11.63-7.38-18.63-17.12-18.63s-17.12,7-17.12,18.63,7.38,18.62,17.12,18.62,17.12-7,17.12-18.62Z"/>
  </g>
<text x="670" y="560" font-family="'Courier Prime','American Typewriter',monospace" font-size="13" fill="#ffffff" text-anchor="middle" letter-spacing="3" opacity="0.18">AI-native content engine</text>

<!-- Horizontal Light -->
<rect x="900" y="160" width="800" height="210" rx="16" fill="#ffffff" stroke="#eee" stroke-width="1"/>
<text x="1300" y="190" font-family="'SF Mono',monospace" font-size="10" fill="#bbb" text-anchor="middle" letter-spacing="2">HORIZONTAL · LIGHT</text>
<g transform="translate(940,215) scale(0.38783)">
  <path fill="#1c1c1c" d="M167.6,0C87.6,0,7.6,48,7.6,144s48,169.6,112,192c32,9.6,48-9.6,48-41.6"/>
  <path fill="#0d0d0d" d="M7.6,144c-16,48-6.4,118.4,25.6,156.8,25.6,25.6,64,38.4,86.4,35.2"/>
  <path fill="#f7bb2e" d="M167.6,0c80,0,160,48,160,144s-48,169.6-112,192c-32,9.6-48-9.6-48-41.6"/>
  <path fill="#d9a11a" d="M327.6,144c16,48,6.4,118.4-25.6,156.8-25.6,25.6-64,38.4-86.4,35.2"/>
  <path fill="#fff" d="M52.4,160c38.4-59.73,76.8-89.6,115.2-89.6s76.8,29.87,115.2,89.6c-38.4,59.73-76.8,89.6-115.2,89.6s-76.8-29.87-115.2-89.6Z"/>
  <circle fill="#f7bb2e" cx="167.6" cy="160" r="48"/>
  <circle fill="#0d0d0d" cx="167.6" cy="160" r="20.8"/>
  <circle fill="#fff" opacity=".9" cx="180.4" cy="147.2" r="8.96"/>
  <circle fill="#fff" opacity=".3" cx="158" cy="171.2" r="4.16"/></g>
<g transform="translate(1090,230) scale(0.44536)">
    <path fill="#fff" d="M1054.41,255.2H68.28C30.54,255.2,0,232.3,0,204.1V51.2C0,23,30.54,0,68.28,0h986.14c37.74,0,68.28,22.9,68.28,51.2v152.8c0,28.3-30.54,51.2-68.28,51.2Z"/>
    <path fill="#000" d="M283.1,139.3h-50.4c1.9,8.3,8.9,13.4,19.1,13.4,7.1,0,12.1-2.1,16.7-6.4l10.3,11.1c-6.2,7.1-15.5,10.8-27.5,10.8-23,0-38-14.5-38-34.3s15.2-34.3,35.5-34.3,34.7,13.1,34.7,34.5c-.1,1.5-.3,3.6-.4,5.2ZM232.4,128h32.8c-1.4-8.4-7.7-13.9-16.3-13.9s-15.1,5.4-16.5,13.9Z"/><path fill="#000" d="M366.8,133.8c0,20.9-14.5,34.3-33.2,34.3-8.9,0-16.1-2.8-20.9-8.7v7.7h-18.4v-91.9h19.3v32.3c5-5.4,11.8-8,20.1-8,18.6,0,33.1,13.4,33.1,34.3ZM347.2,133.8c0-11.5-7.3-18.4-17-18.4s-17,6.9-17,18.4,7.3,18.4,17,18.4c9.7.1,17-6.9,17-18.4Z"/><path fill="#000" d="M445.7,129v38.1h-19.3v-35.1c0-10.8-5-15.7-13.5-15.7-9.3,0-16,5.7-16,18v32.9h-19.3v-91.9h19.3v32.2c5.2-5.2,12.6-7.9,21.2-7.9,15.7-.1,27.6,9.1,27.6,29.4Z"/><path fill="#000" d="M454.8,133.8c0-20.1,15.5-34.3,36.6-34.3s36.5,14.2,36.5,34.3-15.4,34.3-36.5,34.3c-21.1,0-36.6-14.2-36.6-34.3ZM508.4,133.8c0-11.5-7.3-18.4-17-18.4s-17.1,6.9-17.1,18.4,7.4,18.4,17.1,18.4c9.7.1,17-6.9,17-18.4Z"/><path fill="#000" d="M603.9,100.5v66.6h-18.3v-7.9c-5.1,5.8-12.5,8.9-20.7,8.9-16.7,0-28.5-9.4-28.5-30v-37.6h19.3v34.8c0,11.1,5,16.1,13.5,16.1s15.4-5.7,15.4-18v-32.9h19.3Z"/><path fill="#000" d="M615.4,160.9l6.4-13.9c5.9,3.8,15,6.4,23.2,6.4,8.9,0,12.3-2.4,12.3-6.1,0-10.9-40.2.2-40.2-26.4,0-12.6,11.4-21.5,30.8-21.5,9.2,0,19.3,2.1,25.6,5.8l-6.4,13.7c-6.6-3.7-13.1-5-19.2-5-8.7,0-12.4,2.7-12.4,6.2,0,11.4,40.2.4,40.2,26.6,0,12.4-11.5,21.2-31.4,21.2-11.3.2-22.7-2.9-28.9-7Z"/><path fill="#000" d="M752.4,139.3h-50.4c1.9,8.3,8.9,13.4,19.1,13.4,7.1,0,12.1-2.1,16.7-6.4l10.3,11.1c-6.2,7.1-15.5,10.8-27.5,10.8-23,0-38-14.5-38-34.3s15.2-34.3,35.5-34.3,34.7,13.1,34.7,34.5c0,1.5-.2,3.6-.4,5.2ZM701.8,128h32.8c-1.4-8.4-7.7-13.9-16.3-13.9s-15.1,5.4-16.5,13.9Z"/><path fill="#000" d="M203.6,94.9v39.8c0,21.2-11.9,33.4-33.5,33.4-9.9,0-18.1-2.7-23.7-10.2-5.5,7.2-13.4,10.2-23.9,10.2-21.7,0-33.4-12.2-33.4-33.4v-39.8h20.9v38.2c0,11.9,3.9,17.4,12.7,17.4s13.1-5.5,13.1-17.4v-38.2h20.9v38.2c0,11.9,4.3,17.4,13.1,17.4s12.7-5.5,12.7-17.4v-38.2h21.1Z"/>
    <path fill="#f5ba2b" d="M764.05,157.7c0-7.25,5.38-12,12.12-12s12.12,4.75,12.12,12-5.38,12.25-12.12,12.25-12.12-5.12-12.12-12.25Z"/><path fill="#f5ba2b" d="M868.93,101.7v67.25h-18.62v-7.75c-4.88,5.88-12,8.75-21,8.75-19,0-33.62-13.5-33.62-34.62s14.62-34.63,33.62-34.63c8.25,0,15.25,2.62,20.12,8.12v-7.12h19.5ZM849.8,135.32c0-11.63-7.5-18.63-17.12-18.63s-17.25,7-17.25,18.63,7.5,18.62,17.25,18.62,17.12-7,17.12-18.62Z"/><path fill="#f5ba2b" d="M956.42,135.32c0,21.12-14.62,34.62-33.5,34.62-8.38,0-15.25-2.62-20.25-8.12v31.38h-19.5v-91.5h18.62v7.75c4.88-5.88,12.12-8.75,21.12-8.75,18.88,0,33.5,13.5,33.5,34.63ZM936.67,135.32c0-11.63-7.38-18.63-17.12-18.63s-17.12,7-17.12,18.63,7.38,18.62,17.12,18.62,17.12-7,17.12-18.62Z"/><path fill="#f5ba2b" d="M1038.92,135.32c0,21.12-14.62,34.62-33.5,34.62-8.38,0-15.25-2.62-20.25-8.12v31.38h-19.5v-91.5h18.62v7.75c4.88-5.88,12.12-8.75,21.12-8.75,18.88,0,33.5,13.5,33.5,34.63ZM1019.17,135.32c0-11.63-7.38-18.63-17.12-18.63s-17.12,7-17.12,18.63,7.38,18.62,17.12,18.62,17.12-7,17.12-18.62Z"/>
  </g>

<!-- Horizontal Dark -->
<rect x="900" y="400" width="800" height="210" rx="16" fill="#0d0d0d"/>
<text x="1300" y="430" font-family="'SF Mono',monospace" font-size="10" fill="#444" text-anchor="middle" letter-spacing="2">HORIZONTAL · DARK</text>
<g transform="translate(940,455) scale(0.38783)">
  <path fill="#2a2a3e" d="M167.6,0C87.6,0,7.6,48,7.6,144s48,169.6,112,192c32,9.6,48-9.6,48-41.6"/>
  <path fill="#212135" d="M7.6,144c-16,48-6.4,118.4,25.6,156.8,25.6,25.6,64,38.4,86.4,35.2"/>
  <path fill="#f7bb2e" d="M167.6,0c80,0,160,48,160,144s-48,169.6-112,192c-32,9.6-48-9.6-48-41.6"/>
  <path fill="#d9a11a" d="M327.6,144c16,48,6.4,118.4-25.6,156.8-25.6,25.6-64,38.4-86.4,35.2"/>
  <path fill="#fff" d="M52.4,160c38.4-59.73,76.8-89.6,115.2-89.6s76.8,29.87,115.2,89.6c-38.4,59.73-76.8,89.6-115.2,89.6s-76.8-29.87-115.2-89.6Z"/>
  <circle fill="#f7bb2e" cx="167.6" cy="160" r="48"/>
  <circle fill="#0d0d0d" cx="167.6" cy="160" r="20.8"/>
  <circle fill="#fff" opacity=".9" cx="180.4" cy="147.2" r="8.96"/>
  <circle fill="#fff" opacity=".3" cx="158" cy="171.2" r="4.16"/></g>
<g transform="translate(1090,470) scale(0.44536)">
    <path fill="#0d0d0d" d="M1054.41,255.2H68.28C30.54,255.2,0,232.3,0,204.1V51.2C0,23,30.54,0,68.28,0h986.14c37.74,0,68.28,22.9,68.28,51.2v152.8c0,28.3-30.54,51.2-68.28,51.2Z"/>
    <path fill="#fff" d="M283.1,139.3h-50.4c1.9,8.3,8.9,13.4,19.1,13.4,7.1,0,12.1-2.1,16.7-6.4l10.3,11.1c-6.2,7.1-15.5,10.8-27.5,10.8-23,0-38-14.5-38-34.3s15.2-34.3,35.5-34.3,34.7,13.1,34.7,34.5c-.1,1.5-.3,3.6-.4,5.2ZM232.4,128h32.8c-1.4-8.4-7.7-13.9-16.3-13.9s-15.1,5.4-16.5,13.9Z"/><path fill="#fff" d="M366.8,133.8c0,20.9-14.5,34.3-33.2,34.3-8.9,0-16.1-2.8-20.9-8.7v7.7h-18.4v-91.9h19.3v32.3c5-5.4,11.8-8,20.1-8,18.6,0,33.1,13.4,33.1,34.3ZM347.2,133.8c0-11.5-7.3-18.4-17-18.4s-17,6.9-17,18.4,7.3,18.4,17,18.4c9.7.1,17-6.9,17-18.4Z"/><path fill="#fff" d="M445.7,129v38.1h-19.3v-35.1c0-10.8-5-15.7-13.5-15.7-9.3,0-16,5.7-16,18v32.9h-19.3v-91.9h19.3v32.2c5.2-5.2,12.6-7.9,21.2-7.9,15.7-.1,27.6,9.1,27.6,29.4Z"/><path fill="#fff" d="M454.8,133.8c0-20.1,15.5-34.3,36.6-34.3s36.5,14.2,36.5,34.3-15.4,34.3-36.5,34.3c-21.1,0-36.6-14.2-36.6-34.3ZM508.4,133.8c0-11.5-7.3-18.4-17-18.4s-17.1,6.9-17.1,18.4,7.4,18.4,17.1,18.4c9.7.1,17-6.9,17-18.4Z"/><path fill="#fff" d="M603.9,100.5v66.6h-18.3v-7.9c-5.1,5.8-12.5,8.9-20.7,8.9-16.7,0-28.5-9.4-28.5-30v-37.6h19.3v34.8c0,11.1,5,16.1,13.5,16.1s15.4-5.7,15.4-18v-32.9h19.3Z"/><path fill="#fff" d="M615.4,160.9l6.4-13.9c5.9,3.8,15,6.4,23.2,6.4,8.9,0,12.3-2.4,12.3-6.1,0-10.9-40.2.2-40.2-26.4,0-12.6,11.4-21.5,30.8-21.5,9.2,0,19.3,2.1,25.6,5.8l-6.4,13.7c-6.6-3.7-13.1-5-19.2-5-8.7,0-12.4,2.7-12.4,6.2,0,11.4,40.2.4,40.2,26.6,0,12.4-11.5,21.2-31.4,21.2-11.3.2-22.7-2.9-28.9-7Z"/><path fill="#fff" d="M752.4,139.3h-50.4c1.9,8.3,8.9,13.4,19.1,13.4,7.1,0,12.1-2.1,16.7-6.4l10.3,11.1c-6.2,7.1-15.5,10.8-27.5,10.8-23,0-38-14.5-38-34.3s15.2-34.3,35.5-34.3,34.7,13.1,34.7,34.5c0,1.5-.2,3.6-.4,5.2ZM701.8,128h32.8c-1.4-8.4-7.7-13.9-16.3-13.9s-15.1,5.4-16.5,13.9Z"/><path fill="#fff" d="M203.6,94.9v39.8c0,21.2-11.9,33.4-33.5,33.4-9.9,0-18.1-2.7-23.7-10.2-5.5,7.2-13.4,10.2-23.9,10.2-21.7,0-33.4-12.2-33.4-33.4v-39.8h20.9v38.2c0,11.9,3.9,17.4,12.7,17.4s13.1-5.5,13.1-17.4v-38.2h20.9v38.2c0,11.9,4.3,17.4,13.1,17.4s12.7-5.5,12.7-17.4v-38.2h21.1Z"/>
    <path fill="#f5ba2b" d="M764.05,157.7c0-7.25,5.38-12,12.12-12s12.12,4.75,12.12,12-5.38,12.25-12.12,12.25-12.12-5.12-12.12-12.25Z"/><path fill="#f5ba2b" d="M868.93,101.7v67.25h-18.62v-7.75c-4.88,5.88-12,8.75-21,8.75-19,0-33.62-13.5-33.62-34.62s14.62-34.63,33.62-34.63c8.25,0,15.25,2.62,20.12,8.12v-7.12h19.5ZM849.8,135.32c0-11.63-7.5-18.63-17.12-18.63s-17.25,7-17.25,18.63,7.5,18.62,17.25,18.62,17.12-7,17.12-18.62Z"/><path fill="#f5ba2b" d="M956.42,135.32c0,21.12-14.62,34.62-33.5,34.62-8.38,0-15.25-2.62-20.25-8.12v31.38h-19.5v-91.5h18.62v7.75c4.88-5.88,12.12-8.75,21.12-8.75,18.88,0,33.5,13.5,33.5,34.63ZM936.67,135.32c0-11.63-7.38-18.63-17.12-18.63s-17.12,7-17.12,18.63,7.38,18.62,17.12,18.62,17.12-7,17.12-18.62Z"/><path fill="#f5ba2b" d="M1038.92,135.32c0,21.12-14.62,34.62-33.5,34.62-8.38,0-15.25-2.62-20.25-8.12v31.38h-19.5v-91.5h18.62v7.75c4.88-5.88,12.12-8.75,21.12-8.75,18.88,0,33.5,13.5,33.5,34.63ZM1019.17,135.32c0-11.63-7.38-18.63-17.12-18.63s-17.12,7-17.12,18.63,7.38,18.62,17.12,18.62,17.12-7,17.12-18.62Z"/>
  </g>

<!-- ============ 02 ICON SYSTEM ============ -->
<text x="100" y="715" font-family="'Courier Prime','American Typewriter',monospace" font-size="14" fill="#999" letter-spacing="4">02 — ICON SYSTEM</text>
<line x1="100" y1="730" x2="1700" y2="730" stroke="#e0e0e0" stroke-width="1"/>

<!-- App Icon Light -->
<rect x="60" y="755" width="220" height="260" rx="12" fill="#fff" stroke="#eee"/>
<text x="170" y="782" font-family="'SF Mono',monospace" font-size="10" fill="#bbb" text-anchor="middle" letter-spacing="2">APP ICON · LIGHT</text>
<rect x="105" y="798" width="130" height="130" rx="28" fill="#fff" stroke="#eee"/>
<g transform="translate(110,800) scale(0.35800)">
  <path fill="#1c1c1c" d="M167.6,0C87.6,0,7.6,48,7.6,144s48,169.6,112,192c32,9.6,48-9.6,48-41.6"/>
  <path fill="#0d0d0d" d="M7.6,144c-16,48-6.4,118.4,25.6,156.8,25.6,25.6,64,38.4,86.4,35.2"/>
  <path fill="#f7bb2e" d="M167.6,0c80,0,160,48,160,144s-48,169.6-112,192c-32,9.6-48-9.6-48-41.6"/>
  <path fill="#d9a11a" d="M327.6,144c16,48,6.4,118.4-25.6,156.8-25.6,25.6-64,38.4-86.4,35.2"/>
  <path fill="#fff" d="M52.4,160c38.4-59.73,76.8-89.6,115.2-89.6s76.8,29.87,115.2,89.6c-38.4,59.73-76.8,89.6-115.2,89.6s-76.8-29.87-115.2-89.6Z"/>
  <circle fill="#f7bb2e" cx="167.6" cy="160" r="48"/>
  <circle fill="#0d0d0d" cx="167.6" cy="160" r="20.8"/>
  <circle fill="#fff" opacity=".9" cx="180.4" cy="147.2" r="8.96"/>
  <circle fill="#fff" opacity=".3" cx="158" cy="171.2" r="4.16"/></g>
<text x="170" y="955" font-family="'SF Mono',monospace" font-size="10" fill="#bbb" text-anchor="middle">512 × 512</text>

<!-- App Icon Dark -->
<rect x="310" y="755" width="220" height="260" rx="12" fill="#0d0d0d"/>
<text x="420" y="782" font-family="'SF Mono',monospace" font-size="10" fill="#444" text-anchor="middle" letter-spacing="2">APP ICON · DARK</text>
<rect x="355" y="798" width="130" height="130" rx="28" fill="#1a1a2e"/>
<g transform="translate(360,800) scale(0.35800)">
  <path fill="#2a2a3e" d="M167.6,0C87.6,0,7.6,48,7.6,144s48,169.6,112,192c32,9.6,48-9.6,48-41.6"/>
  <path fill="#212135" d="M7.6,144c-16,48-6.4,118.4,25.6,156.8,25.6,25.6,64,38.4,86.4,35.2"/>
  <path fill="#f7bb2e" d="M167.6,0c80,0,160,48,160,144s-48,169.6-112,192c-32,9.6-48-9.6-48-41.6"/>
  <path fill="#d9a11a" d="M327.6,144c16,48,6.4,118.4-25.6,156.8-25.6,25.6-64,38.4-86.4,35.2"/>
  <path fill="#fff" d="M52.4,160c38.4-59.73,76.8-89.6,115.2-89.6s76.8,29.87,115.2,89.6c-38.4,59.73-76.8,89.6-115.2,89.6s-76.8-29.87-115.2-89.6Z"/>
  <circle fill="#f7bb2e" cx="167.6" cy="160" r="48"/>
  <circle fill="#0d0d0d" cx="167.6" cy="160" r="20.8"/>
  <circle fill="#fff" opacity=".9" cx="180.4" cy="147.2" r="8.96"/>
  <circle fill="#fff" opacity=".3" cx="158" cy="171.2" r="4.16"/></g>
<text x="420" y="955" font-family="'SF Mono',monospace" font-size="10" fill="#444" text-anchor="middle">512 × 512</text>

<!-- Favicons Light -->
<rect x="570" y="755" width="320" height="260" rx="12" fill="#fff" stroke="#eee"/>
<text x="730" y="782" font-family="'SF Mono',monospace" font-size="10" fill="#bbb" text-anchor="middle" letter-spacing="2">FAVICONS · LIGHT</text>
<rect x="610" y="815" width="64" height="64" rx="14" fill="#fff" stroke="#eee"/>
<g transform="translate(614,817) scale(0.16706)">
  <path fill="#1c1c1c" d="M167.6,0C87.6,0,7.6,48,7.6,144s48,169.6,112,192c32,9.6,48-9.6,48-41.6"/>
  <path fill="#0d0d0d" d="M7.6,144c-16,48-6.4,118.4,25.6,156.8,25.6,25.6,64,38.4,86.4,35.2"/>
  <path fill="#f7bb2e" d="M167.6,0c80,0,160,48,160,144s-48,169.6-112,192c-32,9.6-48-9.6-48-41.6"/>
  <path fill="#d9a11a" d="M327.6,144c16,48,6.4,118.4-25.6,156.8-25.6,25.6-64,38.4-86.4,35.2"/>
  <path fill="#fff" d="M52.4,160c38.4-59.73,76.8-89.6,115.2-89.6s76.8,29.87,115.2,89.6c-38.4,59.73-76.8,89.6-115.2,89.6s-76.8-29.87-115.2-89.6Z"/>
  <circle fill="#f7bb2e" cx="167.6" cy="160" r="48"/>
  <circle fill="#0d0d0d" cx="167.6" cy="160" r="20.8"/>
  <circle fill="#fff" opacity=".9" cx="180.4" cy="147.2" r="8.96"/>
  <circle fill="#fff" opacity=".3" cx="158" cy="171.2" r="4.16"/></g>
<text x="642" y="905" font-family="'SF Mono',monospace" font-size="10" fill="#bbb" text-anchor="middle">64</text>
<rect x="710" y="831" width="32" height="32" rx="7" fill="#fff" stroke="#eee"/>
<g transform="translate(712,832) scale(0.08353)">
  <path fill="#1c1c1c" d="M167.6,0C87.6,0,7.6,48,7.6,144s48,169.6,112,192c32,9.6,48-9.6,48-41.6"/>
  <path fill="#0d0d0d" d="M7.6,144c-16,48-6.4,118.4,25.6,156.8,25.6,25.6,64,38.4,86.4,35.2"/>
  <path fill="#f7bb2e" d="M167.6,0c80,0,160,48,160,144s-48,169.6-112,192c-32,9.6-48-9.6-48-41.6"/>
  <path fill="#d9a11a" d="M327.6,144c16,48,6.4,118.4-25.6,156.8-25.6,25.6-64,38.4-86.4,35.2"/>
  <path fill="#fff" d="M52.4,160c38.4-59.73,76.8-89.6,115.2-89.6s76.8,29.87,115.2,89.6c-38.4,59.73-76.8,89.6-115.2,89.6s-76.8-29.87-115.2-89.6Z"/>
  <circle fill="#f7bb2e" cx="167.6" cy="160" r="48"/>
  <circle fill="#0d0d0d" cx="167.6" cy="160" r="20.8"/>
  <circle fill="#fff" opacity=".9" cx="180.4" cy="147.2" r="8.96"/>
  <circle fill="#fff" opacity=".3" cx="158" cy="171.2" r="4.16"/></g>
<text x="726" y="905" font-family="'SF Mono',monospace" font-size="10" fill="#bbb" text-anchor="middle">32</text>
<rect x="778" y="839" width="16" height="16" rx="4" fill="#fff" stroke="#eee"/>
<g transform="translate(779,839.5) scale(0.04177)">
  <path fill="#1c1c1c" d="M167.6,0C87.6,0,7.6,48,7.6,144s48,169.6,112,192c32,9.6,48-9.6,48-41.6"/>
  <path fill="#0d0d0d" d="M7.6,144c-16,48-6.4,118.4,25.6,156.8,25.6,25.6,64,38.4,86.4,35.2"/>
  <path fill="#f7bb2e" d="M167.6,0c80,0,160,48,160,144s-48,169.6-112,192c-32,9.6-48-9.6-48-41.6"/>
  <path fill="#d9a11a" d="M327.6,144c16,48,6.4,118.4-25.6,156.8-25.6,25.6-64,38.4-86.4,35.2"/>
  <path fill="#fff" d="M52.4,160c38.4-59.73,76.8-89.6,115.2-89.6s76.8,29.87,115.2,89.6c-38.4,59.73-76.8,89.6-115.2,89.6s-76.8-29.87-115.2-89.6Z"/>
  <circle fill="#f7bb2e" cx="167.6" cy="160" r="48"/>
  <circle fill="#0d0d0d" cx="167.6" cy="160" r="20.8"/>
  <circle fill="#fff" opacity=".9" cx="180.4" cy="147.2" r="8.96"/>
  <circle fill="#fff" opacity=".3" cx="158" cy="171.2" r="4.16"/></g>
<text x="786" y="905" font-family="'SF Mono',monospace" font-size="10" fill="#bbb" text-anchor="middle">16</text>

<!-- Favicons Dark -->
<rect x="920" y="755" width="320" height="260" rx="12" fill="#0d0d0d"/>
<text x="1080" y="782" font-family="'SF Mono',monospace" font-size="10" fill="#444" text-anchor="middle" letter-spacing="2">FAVICONS · DARK</text>
<rect x="960" y="815" width="64" height="64" rx="14" fill="#1a1a2e"/>
<g transform="translate(964,817) scale(0.16706)">
  <path fill="#2a2a3e" d="M167.6,0C87.6,0,7.6,48,7.6,144s48,169.6,112,192c32,9.6,48-9.6,48-41.6"/>
  <path fill="#212135" d="M7.6,144c-16,48-6.4,118.4,25.6,156.8,25.6,25.6,64,38.4,86.4,35.2"/>
  <path fill="#f7bb2e" d="M167.6,0c80,0,160,48,160,144s-48,169.6-112,192c-32,9.6-48-9.6-48-41.6"/>
  <path fill="#d9a11a" d="M327.6,144c16,48,6.4,118.4-25.6,156.8-25.6,25.6-64,38.4-86.4,35.2"/>
  <path fill="#fff" d="M52.4,160c38.4-59.73,76.8-89.6,115.2-89.6s76.8,29.87,115.2,89.6c-38.4,59.73-76.8,89.6-115.2,89.6s-76.8-29.87-115.2-89.6Z"/>
  <circle fill="#f7bb2e" cx="167.6" cy="160" r="48"/>
  <circle fill="#0d0d0d" cx="167.6" cy="160" r="20.8"/>
  <circle fill="#fff" opacity=".9" cx="180.4" cy="147.2" r="8.96"/>
  <circle fill="#fff" opacity=".3" cx="158" cy="171.2" r="4.16"/></g>
<text x="992" y="905" font-family="'SF Mono',monospace" font-size="10" fill="#444" text-anchor="middle">64</text>
<rect x="1060" y="831" width="32" height="32" rx="7" fill="#1a1a2e"/>
<g transform="translate(1062,832) scale(0.08353)">
  <path fill="#2a2a3e" d="M167.6,0C87.6,0,7.6,48,7.6,144s48,169.6,112,192c32,9.6,48-9.6,48-41.6"/>
  <path fill="#212135" d="M7.6,144c-16,48-6.4,118.4,25.6,156.8,25.6,25.6,64,38.4,86.4,35.2"/>
  <path fill="#f7bb2e" d="M167.6,0c80,0,160,48,160,144s-48,169.6-112,192c-32,9.6-48-9.6-48-41.6"/>
  <path fill="#d9a11a" d="M327.6,144c16,48,6.4,118.4-25.6,156.8-25.6,25.6-64,38.4-86.4,35.2"/>
  <path fill="#fff" d="M52.4,160c38.4-59.73,76.8-89.6,115.2-89.6s76.8,29.87,115.2,89.6c-38.4,59.73-76.8,89.6-115.2,89.6s-76.8-29.87-115.2-89.6Z"/>
  <circle fill="#f7bb2e" cx="167.6" cy="160" r="48"/>
  <circle fill="#0d0d0d" cx="167.6" cy="160" r="20.8"/>
  <circle fill="#fff" opacity=".9" cx="180.4" cy="147.2" r="8.96"/>
  <circle fill="#fff" opacity=".3" cx="158" cy="171.2" r="4.16"/></g>
<text x="1076" y="905" font-family="'SF Mono',monospace" font-size="10" fill="#444" text-anchor="middle">32</text>
<rect x="1128" y="839" width="16" height="16" rx="4" fill="#1a1a2e"/>
<g transform="translate(1129,839.5) scale(0.04177)">
  <path fill="#2a2a3e" d="M167.6,0C87.6,0,7.6,48,7.6,144s48,169.6,112,192c32,9.6,48-9.6,48-41.6"/>
  <path fill="#212135" d="M7.6,144c-16,48-6.4,118.4,25.6,156.8,25.6,25.6,64,38.4,86.4,35.2"/>
  <path fill="#f7bb2e" d="M167.6,0c80,0,160,48,160,144s-48,169.6-112,192c-32,9.6-48-9.6-48-41.6"/>
  <path fill="#d9a11a" d="M327.6,144c16,48,6.4,118.4-25.6,156.8-25.6,25.6-64,38.4-86.4,35.2"/>
  <path fill="#fff" d="M52.4,160c38.4-59.73,76.8-89.6,115.2-89.6s76.8,29.87,115.2,89.6c-38.4,59.73-76.8,89.6-115.2,89.6s-76.8-29.87-115.2-89.6Z"/>
  <circle fill="#f7bb2e" cx="167.6" cy="160" r="48"/>
  <circle fill="#0d0d0d" cx="167.6" cy="160" r="20.8"/>
  <circle fill="#fff" opacity=".9" cx="180.4" cy="147.2" r="8.96"/>
  <circle fill="#fff" opacity=".3" cx="158" cy="171.2" r="4.16"/></g>
<text x="1136" y="905" font-family="'SF Mono',monospace" font-size="10" fill="#444" text-anchor="middle">16</text>

<!-- ============ 03 COLOR PALETTE ============ -->
<text x="100" y="1085" font-family="'Courier Prime','American Typewriter',monospace" font-size="14" fill="#999" letter-spacing="4">03 — COLOR PALETTE</text>
<line x1="100" y1="1100" x2="1700" y2="1100" stroke="#e0e0e0" stroke-width="1"/>

<text x="100" y="1135" font-family="'SF Mono',monospace" font-size="11" fill="#666" letter-spacing="2">PRIMARY</text>
<rect x="100" y="1155" width="180" height="120" rx="12" fill="#F7BB2E"/>
<text x="190" y="1230" font-family="'SF Mono',monospace" font-size="11" fill="#0d0d0d" text-anchor="middle" font-weight="700">Brand Gold</text>
<text x="190" y="1248" font-family="'SF Mono',monospace" font-size="11" fill="#0d0d0d" text-anchor="middle">#F7BB2E</text>

<rect x="310" y="1155" width="180" height="120" rx="12" fill="#0d0d0d"/>
<text x="400" y="1230" font-family="'SF Mono',monospace" font-size="11" fill="#fff" text-anchor="middle" font-weight="700">Primary Dark</text>
<text x="400" y="1248" font-family="'SF Mono',monospace" font-size="11" fill="#fff" text-anchor="middle">#0d0d0d</text>

<rect x="520" y="1155" width="180" height="120" rx="12" fill="#fff" stroke="#ddd"/>
<text x="610" y="1230" font-family="'SF Mono',monospace" font-size="11" fill="#333" text-anchor="middle" font-weight="700">White</text>
<text x="610" y="1248" font-family="'SF Mono',monospace" font-size="11" fill="#333" text-anchor="middle">#FFFFFF</text>

<text x="780" y="1135" font-family="'SF Mono',monospace" font-size="11" fill="#666" letter-spacing="2">ACCENT</text>
<rect x="780" y="1155" width="140" height="120" rx="12" fill="#D9A11A"/>
<text x="850" y="1230" font-family="'SF Mono',monospace" font-size="10" fill="#fff" text-anchor="middle" font-weight="700">Deep Gold</text>
<text x="850" y="1248" font-family="'SF Mono',monospace" font-size="10" fill="#fff" text-anchor="middle">#D9A11A</text>

<rect x="940" y="1155" width="140" height="120" rx="12" fill="#1c1c1c"/>
<text x="1010" y="1230" font-family="'SF Mono',monospace" font-size="10" fill="#fff" text-anchor="middle" font-weight="700">Dark Inner</text>
<text x="1010" y="1248" font-family="'SF Mono',monospace" font-size="10" fill="#fff" text-anchor="middle">#1c1c1c</text>

<text x="1150" y="1135" font-family="'SF Mono',monospace" font-size="11" fill="#666" letter-spacing="2">DARK MODE LOBES</text>
<rect x="1150" y="1155" width="140" height="120" rx="12" fill="#2a2a3e"/>
<text x="1220" y="1230" font-family="'SF Mono',monospace" font-size="10" fill="#fff" text-anchor="middle" font-weight="700">DM Inner</text>
<text x="1220" y="1248" font-family="'SF Mono',monospace" font-size="10" fill="#fff" text-anchor="middle">#2a2a3e</text>

<rect x="1310" y="1155" width="140" height="120" rx="12" fill="#212135"/>
<text x="1380" y="1230" font-family="'SF Mono',monospace" font-size="10" fill="#fff" text-anchor="middle" font-weight="700">DM Outer</text>
<text x="1380" y="1248" font-family="'SF Mono',monospace" font-size="10" fill="#fff" text-anchor="middle">#212135</text>

<!-- ============ 04 CLEAR SPACE ============ -->
<text x="100" y="1355" font-family="'Courier Prime','American Typewriter',monospace" font-size="14" fill="#999" letter-spacing="4">04 — CLEAR SPACE + MINIMUM SIZE</text>
<line x1="100" y1="1370" x2="1700" y2="1370" stroke="#e0e0e0" stroke-width="1"/>

<rect x="100" y="1395" width="500" height="340" rx="12" fill="#fff" stroke="#eee"/>
<text x="350" y="1425" font-family="'SF Mono',monospace" font-size="10" fill="#bbb" text-anchor="middle" letter-spacing="2">CLEAR SPACE = 1× EYE HEIGHT</text>
<rect x="220" y="1460" width="260" height="245" fill="none" stroke="#F7BB2E" stroke-width="1" stroke-dasharray="6,4" opacity="0.5"/>
<g transform="translate(260,1475) scale(0.53699)">
  <path fill="#1c1c1c" d="M167.6,0C87.6,0,7.6,48,7.6,144s48,169.6,112,192c32,9.6,48-9.6,48-41.6"/>
  <path fill="#0d0d0d" d="M7.6,144c-16,48-6.4,118.4,25.6,156.8,25.6,25.6,64,38.4,86.4,35.2"/>
  <path fill="#f7bb2e" d="M167.6,0c80,0,160,48,160,144s-48,169.6-112,192c-32,9.6-48-9.6-48-41.6"/>
  <path fill="#d9a11a" d="M327.6,144c16,48,6.4,118.4-25.6,156.8-25.6,25.6-64,38.4-86.4,35.2"/>
  <path fill="#fff" d="M52.4,160c38.4-59.73,76.8-89.6,115.2-89.6s76.8,29.87,115.2,89.6c-38.4,59.73-76.8,89.6-115.2,89.6s-76.8-29.87-115.2-89.6Z"/>
  <circle fill="#f7bb2e" cx="167.6" cy="160" r="48"/>
  <circle fill="#0d0d0d" cx="167.6" cy="160" r="20.8"/>
  <circle fill="#fff" opacity=".9" cx="180.4" cy="147.2" r="8.96"/>
  <circle fill="#fff" opacity=".3" cx="158" cy="171.2" r="4.16"/></g>
<text x="235" y="1600" font-family="'SF Mono',monospace" font-size="10" fill="#F7BB2E" text-anchor="middle" transform="rotate(-90,235,1600)">1×</text>

<rect x="650" y="1395" width="500" height="340" rx="12" fill="#fff" stroke="#eee"/>
<text x="900" y="1425" font-family="'SF Mono',monospace" font-size="10" fill="#bbb" text-anchor="middle" letter-spacing="2">MINIMUM SIZES</text>
<g transform="translate(700,1470) scale(0.14320)">
  <path fill="#1c1c1c" d="M167.6,0C87.6,0,7.6,48,7.6,144s48,169.6,112,192c32,9.6,48-9.6,48-41.6"/>
  <path fill="#0d0d0d" d="M7.6,144c-16,48-6.4,118.4,25.6,156.8,25.6,25.6,64,38.4,86.4,35.2"/>
  <path fill="#f7bb2e" d="M167.6,0c80,0,160,48,160,144s-48,169.6-112,192c-32,9.6-48-9.6-48-41.6"/>
  <path fill="#d9a11a" d="M327.6,144c16,48,6.4,118.4-25.6,156.8-25.6,25.6-64,38.4-86.4,35.2"/>
  <path fill="#fff" d="M52.4,160c38.4-59.73,76.8-89.6,115.2-89.6s76.8,29.87,115.2,89.6c-38.4,59.73-76.8,89.6-115.2,89.6s-76.8-29.87-115.2-89.6Z"/>
  <circle fill="#f7bb2e" cx="167.6" cy="160" r="48"/>
  <circle fill="#0d0d0d" cx="167.6" cy="160" r="20.8"/>
  <circle fill="#fff" opacity=".9" cx="180.4" cy="147.2" r="8.96"/>
  <circle fill="#fff" opacity=".3" cx="158" cy="171.2" r="4.16"/></g>
<text x="724" y="1540" font-family="'SF Mono',monospace" font-size="10" fill="#999" text-anchor="middle">48px min</text>
<g transform="translate(790,1460) scale(0.23866)">
  <path fill="#1c1c1c" d="M167.6,0C87.6,0,7.6,48,7.6,144s48,169.6,112,192c32,9.6,48-9.6,48-41.6"/>
  <path fill="#0d0d0d" d="M7.6,144c-16,48-6.4,118.4,25.6,156.8,25.6,25.6,64,38.4,86.4,35.2"/>
  <path fill="#f7bb2e" d="M167.6,0c80,0,160,48,160,144s-48,169.6-112,192c-32,9.6-48-9.6-48-41.6"/>
  <path fill="#d9a11a" d="M327.6,144c16,48,6.4,118.4-25.6,156.8-25.6,25.6-64,38.4-86.4,35.2"/>
  <path fill="#fff" d="M52.4,160c38.4-59.73,76.8-89.6,115.2-89.6s76.8,29.87,115.2,89.6c-38.4,59.73-76.8,89.6-115.2,89.6s-76.8-29.87-115.2-89.6Z"/>
  <circle fill="#f7bb2e" cx="167.6" cy="160" r="48"/>
  <circle fill="#0d0d0d" cx="167.6" cy="160" r="20.8"/>
  <circle fill="#fff" opacity=".9" cx="180.4" cy="147.2" r="8.96"/>
  <circle fill="#fff" opacity=".3" cx="158" cy="171.2" r="4.16"/></g>
<text x="830" y="1560" font-family="'SF Mono',monospace" font-size="10" fill="#999" text-anchor="middle">80px rec.</text>
<g transform="translate(700,1610) scale(0.24940)">
    <path fill="#fff" d="M1054.41,255.2H68.28C30.54,255.2,0,232.3,0,204.1V51.2C0,23,30.54,0,68.28,0h986.14c37.74,0,68.28,22.9,68.28,51.2v152.8c0,28.3-30.54,51.2-68.28,51.2Z"/>
    <path fill="#000" d="M283.1,139.3h-50.4c1.9,8.3,8.9,13.4,19.1,13.4,7.1,0,12.1-2.1,16.7-6.4l10.3,11.1c-6.2,7.1-15.5,10.8-27.5,10.8-23,0-38-14.5-38-34.3s15.2-34.3,35.5-34.3,34.7,13.1,34.7,34.5c-.1,1.5-.3,3.6-.4,5.2ZM232.4,128h32.8c-1.4-8.4-7.7-13.9-16.3-13.9s-15.1,5.4-16.5,13.9Z"/><path fill="#000" d="M366.8,133.8c0,20.9-14.5,34.3-33.2,34.3-8.9,0-16.1-2.8-20.9-8.7v7.7h-18.4v-91.9h19.3v32.3c5-5.4,11.8-8,20.1-8,18.6,0,33.1,13.4,33.1,34.3ZM347.2,133.8c0-11.5-7.3-18.4-17-18.4s-17,6.9-17,18.4,7.3,18.4,17,18.4c9.7.1,17-6.9,17-18.4Z"/><path fill="#000" d="M445.7,129v38.1h-19.3v-35.1c0-10.8-5-15.7-13.5-15.7-9.3,0-16,5.7-16,18v32.9h-19.3v-91.9h19.3v32.2c5.2-5.2,12.6-7.9,21.2-7.9,15.7-.1,27.6,9.1,27.6,29.4Z"/><path fill="#000" d="M454.8,133.8c0-20.1,15.5-34.3,36.6-34.3s36.5,14.2,36.5,34.3-15.4,34.3-36.5,34.3c-21.1,0-36.6-14.2-36.6-34.3ZM508.4,133.8c0-11.5-7.3-18.4-17-18.4s-17.1,6.9-17.1,18.4,7.4,18.4,17.1,18.4c9.7.1,17-6.9,17-18.4Z"/><path fill="#000" d="M603.9,100.5v66.6h-18.3v-7.9c-5.1,5.8-12.5,8.9-20.7,8.9-16.7,0-28.5-9.4-28.5-30v-37.6h19.3v34.8c0,11.1,5,16.1,13.5,16.1s15.4-5.7,15.4-18v-32.9h19.3Z"/><path fill="#000" d="M615.4,160.9l6.4-13.9c5.9,3.8,15,6.4,23.2,6.4,8.9,0,12.3-2.4,12.3-6.1,0-10.9-40.2.2-40.2-26.4,0-12.6,11.4-21.5,30.8-21.5,9.2,0,19.3,2.1,25.6,5.8l-6.4,13.7c-6.6-3.7-13.1-5-19.2-5-8.7,0-12.4,2.7-12.4,6.2,0,11.4,40.2.4,40.2,26.6,0,12.4-11.5,21.2-31.4,21.2-11.3.2-22.7-2.9-28.9-7Z"/><path fill="#000" d="M752.4,139.3h-50.4c1.9,8.3,8.9,13.4,19.1,13.4,7.1,0,12.1-2.1,16.7-6.4l10.3,11.1c-6.2,7.1-15.5,10.8-27.5,10.8-23,0-38-14.5-38-34.3s15.2-34.3,35.5-34.3,34.7,13.1,34.7,34.5c0,1.5-.2,3.6-.4,5.2ZM701.8,128h32.8c-1.4-8.4-7.7-13.9-16.3-13.9s-15.1,5.4-16.5,13.9Z"/><path fill="#000" d="M203.6,94.9v39.8c0,21.2-11.9,33.4-33.5,33.4-9.9,0-18.1-2.7-23.7-10.2-5.5,7.2-13.4,10.2-23.9,10.2-21.7,0-33.4-12.2-33.4-33.4v-39.8h20.9v38.2c0,11.9,3.9,17.4,12.7,17.4s13.1-5.5,13.1-17.4v-38.2h20.9v38.2c0,11.9,4.3,17.4,13.1,17.4s12.7-5.5,12.7-17.4v-38.2h21.1Z"/>
    <path fill="#f5ba2b" d="M764.05,157.7c0-7.25,5.38-12,12.12-12s12.12,4.75,12.12,12-5.38,12.25-12.12,12.25-12.12-5.12-12.12-12.25Z"/><path fill="#f5ba2b" d="M868.93,101.7v67.25h-18.62v-7.75c-4.88,5.88-12,8.75-21,8.75-19,0-33.62-13.5-33.62-34.62s14.62-34.63,33.62-34.63c8.25,0,15.25,2.62,20.12,8.12v-7.12h19.5ZM849.8,135.32c0-11.63-7.5-18.63-17.12-18.63s-17.25,7-17.25,18.63,7.5,18.62,17.25,18.62,17.12-7,17.12-18.62Z"/><path fill="#f5ba2b" d="M956.42,135.32c0,21.12-14.62,34.62-33.5,34.62-8.38,0-15.25-2.62-20.25-8.12v31.38h-19.5v-91.5h18.62v7.75c4.88-5.88,12.12-8.75,21.12-8.75,18.88,0,33.5,13.5,33.5,34.63ZM936.67,135.32c0-11.63-7.38-18.63-17.12-18.63s-17.12,7-17.12,18.63,7.38,18.62,17.12,18.62,17.12-7,17.12-18.62Z"/><path fill="#f5ba2b" d="M1038.92,135.32c0,21.12-14.62,34.62-33.5,34.62-8.38,0-15.25-2.62-20.25-8.12v31.38h-19.5v-91.5h18.62v7.75c4.88-5.88,12.12-8.75,21.12-8.75,18.88,0,33.5,13.5,33.5,34.63ZM1019.17,135.32c0-11.63-7.38-18.63-17.12-18.63s-17.12,7-17.12,18.63,7.38,18.62,17.12,18.62,17.12-7,17.12-18.62Z"/>
  </g>
<text x="840" y="1690" font-family="'SF Mono',monospace" font-size="10" fill="#999" text-anchor="middle">min wordmark: 200px</text>

<!-- ============ 05 SOCIAL / OG ============ -->
<text x="100" y="1810" font-family="'Courier Prime','American Typewriter',monospace" font-size="14" fill="#999" letter-spacing="4">05 — SOCIAL MEDIA + OPEN GRAPH</text>
<line x1="100" y1="1825" x2="1700" y2="1825" stroke="#e0e0e0" stroke-width="1"/>

<!-- OG Card -->
<rect x="100" y="1850" width="750" height="394" rx="16" fill="#0d0d0d"/>
<text x="475" y="1878" font-family="'SF Mono',monospace" font-size="9" fill="#333" text-anchor="middle" letter-spacing="2">OG:IMAGE — 1200 × 630</text>
<g transform="translate(200,1910) scale(0.44749)">
  <path fill="#2a2a3e" d="M167.6,0C87.6,0,7.6,48,7.6,144s48,169.6,112,192c32,9.6,48-9.6,48-41.6"/>
  <path fill="#212135" d="M7.6,144c-16,48-6.4,118.4,25.6,156.8,25.6,25.6,64,38.4,86.4,35.2"/>
  <path fill="#f7bb2e" d="M167.6,0c80,0,160,48,160,144s-48,169.6-112,192c-32,9.6-48-9.6-48-41.6"/>
  <path fill="#d9a11a" d="M327.6,144c16,48,6.4,118.4-25.6,156.8-25.6,25.6-64,38.4-86.4,35.2"/>
  <path fill="#fff" d="M52.4,160c38.4-59.73,76.8-89.6,115.2-89.6s76.8,29.87,115.2,89.6c-38.4,59.73-76.8,89.6-115.2,89.6s-76.8-29.87-115.2-89.6Z"/>
  <circle fill="#f7bb2e" cx="167.6" cy="160" r="48"/>
  <circle fill="#0d0d0d" cx="167.6" cy="160" r="20.8"/>
  <circle fill="#fff" opacity=".9" cx="180.4" cy="147.2" r="8.96"/>
  <circle fill="#fff" opacity=".3" cx="158" cy="171.2" r="4.16"/></g>
<g transform="translate(175,2075) scale(0.26722)">
    <path fill="#0d0d0d" d="M1054.41,255.2H68.28C30.54,255.2,0,232.3,0,204.1V51.2C0,23,30.54,0,68.28,0h986.14c37.74,0,68.28,22.9,68.28,51.2v152.8c0,28.3-30.54,51.2-68.28,51.2Z"/>
    <path fill="#fff" d="M283.1,139.3h-50.4c1.9,8.3,8.9,13.4,19.1,13.4,7.1,0,12.1-2.1,16.7-6.4l10.3,11.1c-6.2,7.1-15.5,10.8-27.5,10.8-23,0-38-14.5-38-34.3s15.2-34.3,35.5-34.3,34.7,13.1,34.7,34.5c-.1,1.5-.3,3.6-.4,5.2ZM232.4,128h32.8c-1.4-8.4-7.7-13.9-16.3-13.9s-15.1,5.4-16.5,13.9Z"/><path fill="#fff" d="M366.8,133.8c0,20.9-14.5,34.3-33.2,34.3-8.9,0-16.1-2.8-20.9-8.7v7.7h-18.4v-91.9h19.3v32.3c5-5.4,11.8-8,20.1-8,18.6,0,33.1,13.4,33.1,34.3ZM347.2,133.8c0-11.5-7.3-18.4-17-18.4s-17,6.9-17,18.4,7.3,18.4,17,18.4c9.7.1,17-6.9,17-18.4Z"/><path fill="#fff" d="M445.7,129v38.1h-19.3v-35.1c0-10.8-5-15.7-13.5-15.7-9.3,0-16,5.7-16,18v32.9h-19.3v-91.9h19.3v32.2c5.2-5.2,12.6-7.9,21.2-7.9,15.7-.1,27.6,9.1,27.6,29.4Z"/><path fill="#fff" d="M454.8,133.8c0-20.1,15.5-34.3,36.6-34.3s36.5,14.2,36.5,34.3-15.4,34.3-36.5,34.3c-21.1,0-36.6-14.2-36.6-34.3ZM508.4,133.8c0-11.5-7.3-18.4-17-18.4s-17.1,6.9-17.1,18.4,7.4,18.4,17.1,18.4c9.7.1,17-6.9,17-18.4Z"/><path fill="#fff" d="M603.9,100.5v66.6h-18.3v-7.9c-5.1,5.8-12.5,8.9-20.7,8.9-16.7,0-28.5-9.4-28.5-30v-37.6h19.3v34.8c0,11.1,5,16.1,13.5,16.1s15.4-5.7,15.4-18v-32.9h19.3Z"/><path fill="#fff" d="M615.4,160.9l6.4-13.9c5.9,3.8,15,6.4,23.2,6.4,8.9,0,12.3-2.4,12.3-6.1,0-10.9-40.2.2-40.2-26.4,0-12.6,11.4-21.5,30.8-21.5,9.2,0,19.3,2.1,25.6,5.8l-6.4,13.7c-6.6-3.7-13.1-5-19.2-5-8.7,0-12.4,2.7-12.4,6.2,0,11.4,40.2.4,40.2,26.6,0,12.4-11.5,21.2-31.4,21.2-11.3.2-22.7-2.9-28.9-7Z"/><path fill="#fff" d="M752.4,139.3h-50.4c1.9,8.3,8.9,13.4,19.1,13.4,7.1,0,12.1-2.1,16.7-6.4l10.3,11.1c-6.2,7.1-15.5,10.8-27.5,10.8-23,0-38-14.5-38-34.3s15.2-34.3,35.5-34.3,34.7,13.1,34.7,34.5c0,1.5-.2,3.6-.4,5.2ZM701.8,128h32.8c-1.4-8.4-7.7-13.9-16.3-13.9s-15.1,5.4-16.5,13.9Z"/><path fill="#fff" d="M203.6,94.9v39.8c0,21.2-11.9,33.4-33.5,33.4-9.9,0-18.1-2.7-23.7-10.2-5.5,7.2-13.4,10.2-23.9,10.2-21.7,0-33.4-12.2-33.4-33.4v-39.8h20.9v38.2c0,11.9,3.9,17.4,12.7,17.4s13.1-5.5,13.1-17.4v-38.2h20.9v38.2c0,11.9,4.3,17.4,13.1,17.4s12.7-5.5,12.7-17.4v-38.2h21.1Z"/>
    <path fill="#f5ba2b" d="M764.05,157.7c0-7.25,5.38-12,12.12-12s12.12,4.75,12.12,12-5.38,12.25-12.12,12.25-12.12-5.12-12.12-12.25Z"/><path fill="#f5ba2b" d="M868.93,101.7v67.25h-18.62v-7.75c-4.88,5.88-12,8.75-21,8.75-19,0-33.62-13.5-33.62-34.62s14.62-34.63,33.62-34.63c8.25,0,15.25,2.62,20.12,8.12v-7.12h19.5ZM849.8,135.32c0-11.63-7.5-18.63-17.12-18.63s-17.25,7-17.25,18.63,7.5,18.62,17.25,18.62,17.12-7,17.12-18.62Z"/><path fill="#f5ba2b" d="M956.42,135.32c0,21.12-14.62,34.62-33.5,34.62-8.38,0-15.25-2.62-20.25-8.12v31.38h-19.5v-91.5h18.62v7.75c4.88-5.88,12.12-8.75,21.12-8.75,18.88,0,33.5,13.5,33.5,34.63ZM936.67,135.32c0-11.63-7.38-18.63-17.12-18.63s-17.12,7-17.12,18.63,7.38,18.62,17.12,18.62,17.12-7,17.12-18.62Z"/><path fill="#f5ba2b" d="M1038.92,135.32c0,21.12-14.62,34.62-33.5,34.62-8.38,0-15.25-2.62-20.25-8.12v31.38h-19.5v-91.5h18.62v7.75c4.88-5.88,12.12-8.75,21.12-8.75,18.88,0,33.5,13.5,33.5,34.63ZM1019.17,135.32c0-11.63-7.38-18.63-17.12-18.63s-17.12,7-17.12,18.63,7.38,18.62,17.12,18.62,17.12-7,17.12-18.62Z"/>
  </g>
<line x1="540" y1="1920" x2="540" y2="2160" stroke="#F7BB2E" stroke-width="2" opacity="0.2"/>
<text x="580" y="1960" font-family="'SF Mono',monospace" font-size="11" fill="#F7BB2E" letter-spacing="3">AI-NATIVE CMS</text>
<text x="580" y="2000" font-family="'Courier Prime',monospace" font-size="14" fill="#fff" opacity="0.6">Schema-driven content.</text>
<text x="580" y="2025" font-family="'Courier Prime',monospace" font-size="14" fill="#fff" opacity="0.6">AI-powered authoring.</text>
<text x="580" y="2050" font-family="'Courier Prime',monospace" font-size="14" fill="#fff" opacity="0.6">Static-first output.</text>
<text x="580" y="2100" font-family="'SF Mono',monospace" font-size="12" fill="#F7BB2E" opacity="0.4">npm i @webhouse/cms</text>

<!-- Twitter Card -->
<rect x="900" y="1850" width="600" height="240" rx="16" fill="#0d0d0d"/>
<text x="1200" y="1878" font-family="'SF Mono',monospace" font-size="9" fill="#333" text-anchor="middle" letter-spacing="2">TWITTER CARD</text>
<g transform="translate(940,1905) scale(0.29833)">
  <path fill="#2a2a3e" d="M167.6,0C87.6,0,7.6,48,7.6,144s48,169.6,112,192c32,9.6,48-9.6,48-41.6"/>
  <path fill="#212135" d="M7.6,144c-16,48-6.4,118.4,25.6,156.8,25.6,25.6,64,38.4,86.4,35.2"/>
  <path fill="#f7bb2e" d="M167.6,0c80,0,160,48,160,144s-48,169.6-112,192c-32,9.6-48-9.6-48-41.6"/>
  <path fill="#d9a11a" d="M327.6,144c16,48,6.4,118.4-25.6,156.8-25.6,25.6-64,38.4-86.4,35.2"/>
  <path fill="#fff" d="M52.4,160c38.4-59.73,76.8-89.6,115.2-89.6s76.8,29.87,115.2,89.6c-38.4,59.73-76.8,89.6-115.2,89.6s-76.8-29.87-115.2-89.6Z"/>
  <circle fill="#f7bb2e" cx="167.6" cy="160" r="48"/>
  <circle fill="#0d0d0d" cx="167.6" cy="160" r="20.8"/>
  <circle fill="#fff" opacity=".9" cx="180.4" cy="147.2" r="8.96"/>
  <circle fill="#fff" opacity=".3" cx="158" cy="171.2" r="4.16"/></g>
<g transform="translate(1060,1920) scale(0.35629)">
    <path fill="#0d0d0d" d="M1054.41,255.2H68.28C30.54,255.2,0,232.3,0,204.1V51.2C0,23,30.54,0,68.28,0h986.14c37.74,0,68.28,22.9,68.28,51.2v152.8c0,28.3-30.54,51.2-68.28,51.2Z"/>
    <path fill="#fff" d="M283.1,139.3h-50.4c1.9,8.3,8.9,13.4,19.1,13.4,7.1,0,12.1-2.1,16.7-6.4l10.3,11.1c-6.2,7.1-15.5,10.8-27.5,10.8-23,0-38-14.5-38-34.3s15.2-34.3,35.5-34.3,34.7,13.1,34.7,34.5c-.1,1.5-.3,3.6-.4,5.2ZM232.4,128h32.8c-1.4-8.4-7.7-13.9-16.3-13.9s-15.1,5.4-16.5,13.9Z"/><path fill="#fff" d="M366.8,133.8c0,20.9-14.5,34.3-33.2,34.3-8.9,0-16.1-2.8-20.9-8.7v7.7h-18.4v-91.9h19.3v32.3c5-5.4,11.8-8,20.1-8,18.6,0,33.1,13.4,33.1,34.3ZM347.2,133.8c0-11.5-7.3-18.4-17-18.4s-17,6.9-17,18.4,7.3,18.4,17,18.4c9.7.1,17-6.9,17-18.4Z"/><path fill="#fff" d="M445.7,129v38.1h-19.3v-35.1c0-10.8-5-15.7-13.5-15.7-9.3,0-16,5.7-16,18v32.9h-19.3v-91.9h19.3v32.2c5.2-5.2,12.6-7.9,21.2-7.9,15.7-.1,27.6,9.1,27.6,29.4Z"/><path fill="#fff" d="M454.8,133.8c0-20.1,15.5-34.3,36.6-34.3s36.5,14.2,36.5,34.3-15.4,34.3-36.5,34.3c-21.1,0-36.6-14.2-36.6-34.3ZM508.4,133.8c0-11.5-7.3-18.4-17-18.4s-17.1,6.9-17.1,18.4,7.4,18.4,17.1,18.4c9.7.1,17-6.9,17-18.4Z"/><path fill="#fff" d="M603.9,100.5v66.6h-18.3v-7.9c-5.1,5.8-12.5,8.9-20.7,8.9-16.7,0-28.5-9.4-28.5-30v-37.6h19.3v34.8c0,11.1,5,16.1,13.5,16.1s15.4-5.7,15.4-18v-32.9h19.3Z"/><path fill="#fff" d="M615.4,160.9l6.4-13.9c5.9,3.8,15,6.4,23.2,6.4,8.9,0,12.3-2.4,12.3-6.1,0-10.9-40.2.2-40.2-26.4,0-12.6,11.4-21.5,30.8-21.5,9.2,0,19.3,2.1,25.6,5.8l-6.4,13.7c-6.6-3.7-13.1-5-19.2-5-8.7,0-12.4,2.7-12.4,6.2,0,11.4,40.2.4,40.2,26.6,0,12.4-11.5,21.2-31.4,21.2-11.3.2-22.7-2.9-28.9-7Z"/><path fill="#fff" d="M752.4,139.3h-50.4c1.9,8.3,8.9,13.4,19.1,13.4,7.1,0,12.1-2.1,16.7-6.4l10.3,11.1c-6.2,7.1-15.5,10.8-27.5,10.8-23,0-38-14.5-38-34.3s15.2-34.3,35.5-34.3,34.7,13.1,34.7,34.5c0,1.5-.2,3.6-.4,5.2ZM701.8,128h32.8c-1.4-8.4-7.7-13.9-16.3-13.9s-15.1,5.4-16.5,13.9Z"/><path fill="#fff" d="M203.6,94.9v39.8c0,21.2-11.9,33.4-33.5,33.4-9.9,0-18.1-2.7-23.7-10.2-5.5,7.2-13.4,10.2-23.9,10.2-21.7,0-33.4-12.2-33.4-33.4v-39.8h20.9v38.2c0,11.9,3.9,17.4,12.7,17.4s13.1-5.5,13.1-17.4v-38.2h20.9v38.2c0,11.9,4.3,17.4,13.1,17.4s12.7-5.5,12.7-17.4v-38.2h21.1Z"/>
    <path fill="#f5ba2b" d="M764.05,157.7c0-7.25,5.38-12,12.12-12s12.12,4.75,12.12,12-5.38,12.25-12.12,12.25-12.12-5.12-12.12-12.25Z"/><path fill="#f5ba2b" d="M868.93,101.7v67.25h-18.62v-7.75c-4.88,5.88-12,8.75-21,8.75-19,0-33.62-13.5-33.62-34.62s14.62-34.63,33.62-34.63c8.25,0,15.25,2.62,20.12,8.12v-7.12h19.5ZM849.8,135.32c0-11.63-7.5-18.63-17.12-18.63s-17.25,7-17.25,18.63,7.5,18.62,17.25,18.62,17.12-7,17.12-18.62Z"/><path fill="#f5ba2b" d="M956.42,135.32c0,21.12-14.62,34.62-33.5,34.62-8.38,0-15.25-2.62-20.25-8.12v31.38h-19.5v-91.5h18.62v7.75c4.88-5.88,12.12-8.75,21.12-8.75,18.88,0,33.5,13.5,33.5,34.63ZM936.67,135.32c0-11.63-7.38-18.63-17.12-18.63s-17.12,7-17.12,18.63,7.38,18.62,17.12,18.62,17.12-7,17.12-18.62Z"/><path fill="#f5ba2b" d="M1038.92,135.32c0,21.12-14.62,34.62-33.5,34.62-8.38,0-15.25-2.62-20.25-8.12v31.38h-19.5v-91.5h18.62v7.75c4.88-5.88,12.12-8.75,21.12-8.75,18.88,0,33.5,13.5,33.5,34.63ZM1019.17,135.32c0-11.63-7.38-18.63-17.12-18.63s-17.12,7-17.12,18.63,7.38,18.62,17.12,18.62,17.12-7,17.12-18.62Z"/>
  </g>
<text x="1200" y="2035" font-family="'Courier Prime',monospace" font-size="12" fill="#fff" text-anchor="middle" opacity="0.25">AI-native content engine</text>

<!-- GitHub banner -->
<rect x="900" y="2120" width="600" height="90" rx="12" fill="#0d0d0d"/>
<text x="1200" y="2145" font-family="'SF Mono',monospace" font-size="9" fill="#333" text-anchor="middle" letter-spacing="2">GITHUB README</text>
<g transform="translate(950,2155) scale(0.11933)">
  <path fill="#2a2a3e" d="M167.6,0C87.6,0,7.6,48,7.6,144s48,169.6,112,192c32,9.6,48-9.6,48-41.6"/>
  <path fill="#212135" d="M7.6,144c-16,48-6.4,118.4,25.6,156.8,25.6,25.6,64,38.4,86.4,35.2"/>
  <path fill="#f7bb2e" d="M167.6,0c80,0,160,48,160,144s-48,169.6-112,192c-32,9.6-48-9.6-48-41.6"/>
  <path fill="#d9a11a" d="M327.6,144c16,48,6.4,118.4-25.6,156.8-25.6,25.6-64,38.4-86.4,35.2"/>
  <path fill="#fff" d="M52.4,160c38.4-59.73,76.8-89.6,115.2-89.6s76.8,29.87,115.2,89.6c-38.4,59.73-76.8,89.6-115.2,89.6s-76.8-29.87-115.2-89.6Z"/>
  <circle fill="#f7bb2e" cx="167.6" cy="160" r="48"/>
  <circle fill="#0d0d0d" cx="167.6" cy="160" r="20.8"/>
  <circle fill="#fff" opacity=".9" cx="180.4" cy="147.2" r="8.96"/>
  <circle fill="#fff" opacity=".3" cx="158" cy="171.2" r="4.16"/></g>
<g transform="translate(1000,2155) scale(0.22268)">
    <path fill="#0d0d0d" d="M1054.41,255.2H68.28C30.54,255.2,0,232.3,0,204.1V51.2C0,23,30.54,0,68.28,0h986.14c37.74,0,68.28,22.9,68.28,51.2v152.8c0,28.3-30.54,51.2-68.28,51.2Z"/>
    <path fill="#fff" d="M283.1,139.3h-50.4c1.9,8.3,8.9,13.4,19.1,13.4,7.1,0,12.1-2.1,16.7-6.4l10.3,11.1c-6.2,7.1-15.5,10.8-27.5,10.8-23,0-38-14.5-38-34.3s15.2-34.3,35.5-34.3,34.7,13.1,34.7,34.5c-.1,1.5-.3,3.6-.4,5.2ZM232.4,128h32.8c-1.4-8.4-7.7-13.9-16.3-13.9s-15.1,5.4-16.5,13.9Z"/><path fill="#fff" d="M366.8,133.8c0,20.9-14.5,34.3-33.2,34.3-8.9,0-16.1-2.8-20.9-8.7v7.7h-18.4v-91.9h19.3v32.3c5-5.4,11.8-8,20.1-8,18.6,0,33.1,13.4,33.1,34.3ZM347.2,133.8c0-11.5-7.3-18.4-17-18.4s-17,6.9-17,18.4,7.3,18.4,17,18.4c9.7.1,17-6.9,17-18.4Z"/><path fill="#fff" d="M445.7,129v38.1h-19.3v-35.1c0-10.8-5-15.7-13.5-15.7-9.3,0-16,5.7-16,18v32.9h-19.3v-91.9h19.3v32.2c5.2-5.2,12.6-7.9,21.2-7.9,15.7-.1,27.6,9.1,27.6,29.4Z"/><path fill="#fff" d="M454.8,133.8c0-20.1,15.5-34.3,36.6-34.3s36.5,14.2,36.5,34.3-15.4,34.3-36.5,34.3c-21.1,0-36.6-14.2-36.6-34.3ZM508.4,133.8c0-11.5-7.3-18.4-17-18.4s-17.1,6.9-17.1,18.4,7.4,18.4,17.1,18.4c9.7.1,17-6.9,17-18.4Z"/><path fill="#fff" d="M603.9,100.5v66.6h-18.3v-7.9c-5.1,5.8-12.5,8.9-20.7,8.9-16.7,0-28.5-9.4-28.5-30v-37.6h19.3v34.8c0,11.1,5,16.1,13.5,16.1s15.4-5.7,15.4-18v-32.9h19.3Z"/><path fill="#fff" d="M615.4,160.9l6.4-13.9c5.9,3.8,15,6.4,23.2,6.4,8.9,0,12.3-2.4,12.3-6.1,0-10.9-40.2.2-40.2-26.4,0-12.6,11.4-21.5,30.8-21.5,9.2,0,19.3,2.1,25.6,5.8l-6.4,13.7c-6.6-3.7-13.1-5-19.2-5-8.7,0-12.4,2.7-12.4,6.2,0,11.4,40.2.4,40.2,26.6,0,12.4-11.5,21.2-31.4,21.2-11.3.2-22.7-2.9-28.9-7Z"/><path fill="#fff" d="M752.4,139.3h-50.4c1.9,8.3,8.9,13.4,19.1,13.4,7.1,0,12.1-2.1,16.7-6.4l10.3,11.1c-6.2,7.1-15.5,10.8-27.5,10.8-23,0-38-14.5-38-34.3s15.2-34.3,35.5-34.3,34.7,13.1,34.7,34.5c0,1.5-.2,3.6-.4,5.2ZM701.8,128h32.8c-1.4-8.4-7.7-13.9-16.3-13.9s-15.1,5.4-16.5,13.9Z"/><path fill="#fff" d="M203.6,94.9v39.8c0,21.2-11.9,33.4-33.5,33.4-9.9,0-18.1-2.7-23.7-10.2-5.5,7.2-13.4,10.2-23.9,10.2-21.7,0-33.4-12.2-33.4-33.4v-39.8h20.9v38.2c0,11.9,3.9,17.4,12.7,17.4s13.1-5.5,13.1-17.4v-38.2h20.9v38.2c0,11.9,4.3,17.4,13.1,17.4s12.7-5.5,12.7-17.4v-38.2h21.1Z"/>
    <path fill="#f5ba2b" d="M764.05,157.7c0-7.25,5.38-12,12.12-12s12.12,4.75,12.12,12-5.38,12.25-12.12,12.25-12.12-5.12-12.12-12.25Z"/><path fill="#f5ba2b" d="M868.93,101.7v67.25h-18.62v-7.75c-4.88,5.88-12,8.75-21,8.75-19,0-33.62-13.5-33.62-34.62s14.62-34.63,33.62-34.63c8.25,0,15.25,2.62,20.12,8.12v-7.12h19.5ZM849.8,135.32c0-11.63-7.5-18.63-17.12-18.63s-17.25,7-17.25,18.63,7.5,18.62,17.25,18.62,17.12-7,17.12-18.62Z"/><path fill="#f5ba2b" d="M956.42,135.32c0,21.12-14.62,34.62-33.5,34.62-8.38,0-15.25-2.62-20.25-8.12v31.38h-19.5v-91.5h18.62v7.75c4.88-5.88,12.12-8.75,21.12-8.75,18.88,0,33.5,13.5,33.5,34.63ZM936.67,135.32c0-11.63-7.38-18.63-17.12-18.63s-17.12,7-17.12,18.63,7.38,18.62,17.12,18.62,17.12-7,17.12-18.62Z"/><path fill="#f5ba2b" d="M1038.92,135.32c0,21.12-14.62,34.62-33.5,34.62-8.38,0-15.25-2.62-20.25-8.12v31.38h-19.5v-91.5h18.62v7.75c4.88-5.88,12.12-8.75,21.12-8.75,18.88,0,33.5,13.5,33.5,34.63ZM1019.17,135.32c0-11.63-7.38-18.63-17.12-18.63s-17.12,7-17.12,18.63,7.38,18.62,17.12,18.62,17.12-7,17.12-18.62Z"/>
  </g>

<!-- ============ 06 DEVELOPER ============ -->
<text x="100" y="2310" font-family="'Courier Prime','American Typewriter',monospace" font-size="14" fill="#999" letter-spacing="4">06 — DEVELOPER ASSETS</text>
<line x1="100" y1="2325" x2="1700" y2="2325" stroke="#e0e0e0" stroke-width="1"/>

<!-- npm badge -->
<rect x="100" y="2355" width="420" height="56" rx="10" fill="#0d0d0d"/>
<g transform="translate(112,2360) scale(0.10143)">
  <path fill="#2a2a3e" d="M167.6,0C87.6,0,7.6,48,7.6,144s48,169.6,112,192c32,9.6,48-9.6,48-41.6"/>
  <path fill="#212135" d="M7.6,144c-16,48-6.4,118.4,25.6,156.8,25.6,25.6,64,38.4,86.4,35.2"/>
  <path fill="#f7bb2e" d="M167.6,0c80,0,160,48,160,144s-48,169.6-112,192c-32,9.6-48-9.6-48-41.6"/>
  <path fill="#d9a11a" d="M327.6,144c16,48,6.4,118.4-25.6,156.8-25.6,25.6-64,38.4-86.4,35.2"/>
  <path fill="#fff" d="M52.4,160c38.4-59.73,76.8-89.6,115.2-89.6s76.8,29.87,115.2,89.6c-38.4,59.73-76.8,89.6-115.2,89.6s-76.8-29.87-115.2-89.6Z"/>
  <circle fill="#f7bb2e" cx="167.6" cy="160" r="48"/>
  <circle fill="#0d0d0d" cx="167.6" cy="160" r="20.8"/>
  <circle fill="#fff" opacity=".9" cx="180.4" cy="147.2" r="8.96"/>
  <circle fill="#fff" opacity=".3" cx="158" cy="171.2" r="4.16"/></g>
<text x="160" y="2390" font-family="'SF Mono',monospace" font-size="17" fill="#fff" font-weight="600">@webhouse/cms</text>
<rect x="415" y="2367" width="80" height="32" rx="7" fill="#F7BB2E"/>
<text x="455" y="2389" font-family="'SF Mono',monospace" font-size="13" fill="#0d0d0d" text-anchor="middle" font-weight="700">v0.1.0</text>

<!-- CLI -->
<rect x="100" y="2430" width="420" height="48" rx="10" fill="#0d0d0d" stroke="#1e1e2e"/>
<text x="122" y="2460" font-family="'SF Mono',monospace" font-size="14" fill="#555">$</text>
<text x="140" y="2460" font-family="'SF Mono',monospace" font-size="14" fill="#fff">npx @webhouse/cms init</text>

<!-- Terminal output -->
<rect x="100" y="2495" width="420" height="120" rx="10" fill="#0d0d0d" stroke="#1e1e2e"/>
<text x="122" y="2525" font-family="'SF Mono',monospace" font-size="12" fill="#F7BB2E">✓</text>
<text x="140" y="2525" font-family="'SF Mono',monospace" font-size="12" fill="#888">Created cms.config.ts</text>
<text x="122" y="2548" font-family="'SF Mono',monospace" font-size="12" fill="#F7BB2E">✓</text>
<text x="140" y="2548" font-family="'SF Mono',monospace" font-size="12" fill="#888">Initialized SQLite storage</text>
<text x="122" y="2571" font-family="'SF Mono',monospace" font-size="12" fill="#F7BB2E">✓</text>
<text x="140" y="2571" font-family="'SF Mono',monospace" font-size="12" fill="#888">Admin dashboard ready</text>
<text x="122" y="2598" font-family="'SF Mono',monospace" font-size="12" fill="#fff">→ Run: npx @webhouse/cms dev</text>

<!-- Sidebar mockup -->
<rect x="600" y="2355" width="260" height="280" rx="12" fill="#0d0d0d"/>
<text x="730" y="2382" font-family="'SF Mono',monospace" font-size="9" fill="#333" text-anchor="middle" letter-spacing="2">CMS SIDEBAR</text>
<g transform="translate(618,2395) scale(0.08353)">
  <path fill="#2a2a3e" d="M167.6,0C87.6,0,7.6,48,7.6,144s48,169.6,112,192c32,9.6,48-9.6,48-41.6"/>
  <path fill="#212135" d="M7.6,144c-16,48-6.4,118.4,25.6,156.8,25.6,25.6,64,38.4,86.4,35.2"/>
  <path fill="#f7bb2e" d="M167.6,0c80,0,160,48,160,144s-48,169.6-112,192c-32,9.6-48-9.6-48-41.6"/>
  <path fill="#d9a11a" d="M327.6,144c16,48,6.4,118.4-25.6,156.8-25.6,25.6-64,38.4-86.4,35.2"/>
  <path fill="#fff" d="M52.4,160c38.4-59.73,76.8-89.6,115.2-89.6s76.8,29.87,115.2,89.6c-38.4,59.73-76.8,89.6-115.2,89.6s-76.8-29.87-115.2-89.6Z"/>
  <circle fill="#f7bb2e" cx="167.6" cy="160" r="48"/>
  <circle fill="#0d0d0d" cx="167.6" cy="160" r="20.8"/>
  <circle fill="#fff" opacity=".9" cx="180.4" cy="147.2" r="8.96"/>
  <circle fill="#fff" opacity=".3" cx="158" cy="171.2" r="4.16"/></g>
<text x="656" y="2416" font-family="'SF Mono',monospace" font-size="12" fill="#fff" font-weight="600">@webhouse/cms</text>
<line x1="618" y1="2432" x2="842" y2="2432" stroke="#1e1e2e" stroke-width="1"/>
<text x="634" y="2456" font-family="'SF Mono',monospace" font-size="11" fill="#888">Dashboard</text>
<text x="634" y="2478" font-family="'SF Mono',monospace" font-size="11" fill="#F7BB2E">AI Cockpit</text>
<text x="634" y="2500" font-family="'SF Mono',monospace" font-size="11" fill="#888">Content</text>
<text x="634" y="2522" font-family="'SF Mono',monospace" font-size="11" fill="#888">Media</text>
<text x="634" y="2544" font-family="'SF Mono',monospace" font-size="11" fill="#888">Build</text>

<!-- Email signature -->
<rect x="920" y="2355" width="480" height="140" rx="12" fill="#fff" stroke="#eee"/>
<text x="1160" y="2382" font-family="'SF Mono',monospace" font-size="9" fill="#bbb" text-anchor="middle" letter-spacing="2">EMAIL SIGNATURE</text>
<g transform="translate(950,2400) scale(0.13425)">
  <path fill="#1c1c1c" d="M167.6,0C87.6,0,7.6,48,7.6,144s48,169.6,112,192c32,9.6,48-9.6,48-41.6"/>
  <path fill="#0d0d0d" d="M7.6,144c-16,48-6.4,118.4,25.6,156.8,25.6,25.6,64,38.4,86.4,35.2"/>
  <path fill="#f7bb2e" d="M167.6,0c80,0,160,48,160,144s-48,169.6-112,192c-32,9.6-48-9.6-48-41.6"/>
  <path fill="#d9a11a" d="M327.6,144c16,48,6.4,118.4-25.6,156.8-25.6,25.6-64,38.4-86.4,35.2"/>
  <path fill="#fff" d="M52.4,160c38.4-59.73,76.8-89.6,115.2-89.6s76.8,29.87,115.2,89.6c-38.4,59.73-76.8,89.6-115.2,89.6s-76.8-29.87-115.2-89.6Z"/>
  <circle fill="#f7bb2e" cx="167.6" cy="160" r="48"/>
  <circle fill="#0d0d0d" cx="167.6" cy="160" r="20.8"/>
  <circle fill="#fff" opacity=".9" cx="180.4" cy="147.2" r="8.96"/>
  <circle fill="#fff" opacity=".3" cx="158" cy="171.2" r="4.16"/></g>
<text x="1010" y="2420" font-family="'SF Mono',monospace" font-size="13" fill="#0d0d0d" font-weight="700">Christian Broberg</text>
<text x="1010" y="2438" font-family="'SF Mono',monospace" font-size="11" fill="#999">Founder — webhouse.app</text>
<line x1="950" y1="2455" x2="1350" y2="2455" stroke="#eee" stroke-width="1"/>
<g transform="translate(950,2462) scale(0.16033)">
    <path fill="#fff" d="M1054.41,255.2H68.28C30.54,255.2,0,232.3,0,204.1V51.2C0,23,30.54,0,68.28,0h986.14c37.74,0,68.28,22.9,68.28,51.2v152.8c0,28.3-30.54,51.2-68.28,51.2Z"/>
    <path fill="#000" d="M283.1,139.3h-50.4c1.9,8.3,8.9,13.4,19.1,13.4,7.1,0,12.1-2.1,16.7-6.4l10.3,11.1c-6.2,7.1-15.5,10.8-27.5,10.8-23,0-38-14.5-38-34.3s15.2-34.3,35.5-34.3,34.7,13.1,34.7,34.5c-.1,1.5-.3,3.6-.4,5.2ZM232.4,128h32.8c-1.4-8.4-7.7-13.9-16.3-13.9s-15.1,5.4-16.5,13.9Z"/><path fill="#000" d="M366.8,133.8c0,20.9-14.5,34.3-33.2,34.3-8.9,0-16.1-2.8-20.9-8.7v7.7h-18.4v-91.9h19.3v32.3c5-5.4,11.8-8,20.1-8,18.6,0,33.1,13.4,33.1,34.3ZM347.2,133.8c0-11.5-7.3-18.4-17-18.4s-17,6.9-17,18.4,7.3,18.4,17,18.4c9.7.1,17-6.9,17-18.4Z"/><path fill="#000" d="M445.7,129v38.1h-19.3v-35.1c0-10.8-5-15.7-13.5-15.7-9.3,0-16,5.7-16,18v32.9h-19.3v-91.9h19.3v32.2c5.2-5.2,12.6-7.9,21.2-7.9,15.7-.1,27.6,9.1,27.6,29.4Z"/><path fill="#000" d="M454.8,133.8c0-20.1,15.5-34.3,36.6-34.3s36.5,14.2,36.5,34.3-15.4,34.3-36.5,34.3c-21.1,0-36.6-14.2-36.6-34.3ZM508.4,133.8c0-11.5-7.3-18.4-17-18.4s-17.1,6.9-17.1,18.4,7.4,18.4,17.1,18.4c9.7.1,17-6.9,17-18.4Z"/><path fill="#000" d="M603.9,100.5v66.6h-18.3v-7.9c-5.1,5.8-12.5,8.9-20.7,8.9-16.7,0-28.5-9.4-28.5-30v-37.6h19.3v34.8c0,11.1,5,16.1,13.5,16.1s15.4-5.7,15.4-18v-32.9h19.3Z"/><path fill="#000" d="M615.4,160.9l6.4-13.9c5.9,3.8,15,6.4,23.2,6.4,8.9,0,12.3-2.4,12.3-6.1,0-10.9-40.2.2-40.2-26.4,0-12.6,11.4-21.5,30.8-21.5,9.2,0,19.3,2.1,25.6,5.8l-6.4,13.7c-6.6-3.7-13.1-5-19.2-5-8.7,0-12.4,2.7-12.4,6.2,0,11.4,40.2.4,40.2,26.6,0,12.4-11.5,21.2-31.4,21.2-11.3.2-22.7-2.9-28.9-7Z"/><path fill="#000" d="M752.4,139.3h-50.4c1.9,8.3,8.9,13.4,19.1,13.4,7.1,0,12.1-2.1,16.7-6.4l10.3,11.1c-6.2,7.1-15.5,10.8-27.5,10.8-23,0-38-14.5-38-34.3s15.2-34.3,35.5-34.3,34.7,13.1,34.7,34.5c0,1.5-.2,3.6-.4,5.2ZM701.8,128h32.8c-1.4-8.4-7.7-13.9-16.3-13.9s-15.1,5.4-16.5,13.9Z"/><path fill="#000" d="M203.6,94.9v39.8c0,21.2-11.9,33.4-33.5,33.4-9.9,0-18.1-2.7-23.7-10.2-5.5,7.2-13.4,10.2-23.9,10.2-21.7,0-33.4-12.2-33.4-33.4v-39.8h20.9v38.2c0,11.9,3.9,17.4,12.7,17.4s13.1-5.5,13.1-17.4v-38.2h20.9v38.2c0,11.9,4.3,17.4,13.1,17.4s12.7-5.5,12.7-17.4v-38.2h21.1Z"/>
    <path fill="#f5ba2b" d="M764.05,157.7c0-7.25,5.38-12,12.12-12s12.12,4.75,12.12,12-5.38,12.25-12.12,12.25-12.12-5.12-12.12-12.25Z"/><path fill="#f5ba2b" d="M868.93,101.7v67.25h-18.62v-7.75c-4.88,5.88-12,8.75-21,8.75-19,0-33.62-13.5-33.62-34.62s14.62-34.63,33.62-34.63c8.25,0,15.25,2.62,20.12,8.12v-7.12h19.5ZM849.8,135.32c0-11.63-7.5-18.63-17.12-18.63s-17.25,7-17.25,18.63,7.5,18.62,17.25,18.62,17.12-7,17.12-18.62Z"/><path fill="#f5ba2b" d="M956.42,135.32c0,21.12-14.62,34.62-33.5,34.62-8.38,0-15.25-2.62-20.25-8.12v31.38h-19.5v-91.5h18.62v7.75c4.88-5.88,12.12-8.75,21.12-8.75,18.88,0,33.5,13.5,33.5,34.63ZM936.67,135.32c0-11.63-7.38-18.63-17.12-18.63s-17.12,7-17.12,18.63,7.38,18.62,17.12,18.62,17.12-7,17.12-18.62Z"/><path fill="#f5ba2b" d="M1038.92,135.32c0,21.12-14.62,34.62-33.5,34.62-8.38,0-15.25-2.62-20.25-8.12v31.38h-19.5v-91.5h18.62v7.75c4.88-5.88,12.12-8.75,21.12-8.75,18.88,0,33.5,13.5,33.5,34.63ZM1019.17,135.32c0-11.63-7.38-18.63-17.12-18.63s-17.12,7-17.12,18.63,7.38,18.62,17.12,18.62,17.12-7,17.12-18.62Z"/>
  </g>

<!-- ============ 07 BACKGROUNDS ============ -->
<text x="100" y="2720" font-family="'Courier Prime','American Typewriter',monospace" font-size="14" fill="#999" letter-spacing="4">07 — BACKGROUND USAGE</text>
<line x1="100" y1="2735" x2="1700" y2="2735" stroke="#e0e0e0" stroke-width="1"/>

<rect x="100" y="2760" width="240" height="200" rx="12" fill="#ffffff" stroke="#eee"/>
<g transform="translate(130,2775) scale(0.26850)">
  <path fill="#1c1c1c" d="M167.6,0C87.6,0,7.6,48,7.6,144s48,169.6,112,192c32,9.6,48-9.6,48-41.6"/>
  <path fill="#0d0d0d" d="M7.6,144c-16,48-6.4,118.4,25.6,156.8,25.6,25.6,64,38.4,86.4,35.2"/>
  <path fill="#f7bb2e" d="M167.6,0c80,0,160,48,160,144s-48,169.6-112,192c-32,9.6-48-9.6-48-41.6"/>
  <path fill="#d9a11a" d="M327.6,144c16,48,6.4,118.4-25.6,156.8-25.6,25.6-64,38.4-86.4,35.2"/>
  <path fill="#fff" d="M52.4,160c38.4-59.73,76.8-89.6,115.2-89.6s76.8,29.87,115.2,89.6c-38.4,59.73-76.8,89.6-115.2,89.6s-76.8-29.87-115.2-89.6Z"/>
  <circle fill="#f7bb2e" cx="167.6" cy="160" r="48"/>
  <circle fill="#0d0d0d" cx="167.6" cy="160" r="20.8"/>
  <circle fill="#fff" opacity=".9" cx="180.4" cy="147.2" r="8.96"/>
  <circle fill="#fff" opacity=".3" cx="158" cy="171.2" r="4.16"/></g>
<g transform="translate(110,2875) scale(0.17814)">
    <path fill="#fff" d="M1054.41,255.2H68.28C30.54,255.2,0,232.3,0,204.1V51.2C0,23,30.54,0,68.28,0h986.14c37.74,0,68.28,22.9,68.28,51.2v152.8c0,28.3-30.54,51.2-68.28,51.2Z"/>
    <path fill="#000" d="M283.1,139.3h-50.4c1.9,8.3,8.9,13.4,19.1,13.4,7.1,0,12.1-2.1,16.7-6.4l10.3,11.1c-6.2,7.1-15.5,10.8-27.5,10.8-23,0-38-14.5-38-34.3s15.2-34.3,35.5-34.3,34.7,13.1,34.7,34.5c-.1,1.5-.3,3.6-.4,5.2ZM232.4,128h32.8c-1.4-8.4-7.7-13.9-16.3-13.9s-15.1,5.4-16.5,13.9Z"/><path fill="#000" d="M366.8,133.8c0,20.9-14.5,34.3-33.2,34.3-8.9,0-16.1-2.8-20.9-8.7v7.7h-18.4v-91.9h19.3v32.3c5-5.4,11.8-8,20.1-8,18.6,0,33.1,13.4,33.1,34.3ZM347.2,133.8c0-11.5-7.3-18.4-17-18.4s-17,6.9-17,18.4,7.3,18.4,17,18.4c9.7.1,17-6.9,17-18.4Z"/><path fill="#000" d="M445.7,129v38.1h-19.3v-35.1c0-10.8-5-15.7-13.5-15.7-9.3,0-16,5.7-16,18v32.9h-19.3v-91.9h19.3v32.2c5.2-5.2,12.6-7.9,21.2-7.9,15.7-.1,27.6,9.1,27.6,29.4Z"/><path fill="#000" d="M454.8,133.8c0-20.1,15.5-34.3,36.6-34.3s36.5,14.2,36.5,34.3-15.4,34.3-36.5,34.3c-21.1,0-36.6-14.2-36.6-34.3ZM508.4,133.8c0-11.5-7.3-18.4-17-18.4s-17.1,6.9-17.1,18.4,7.4,18.4,17.1,18.4c9.7.1,17-6.9,17-18.4Z"/><path fill="#000" d="M603.9,100.5v66.6h-18.3v-7.9c-5.1,5.8-12.5,8.9-20.7,8.9-16.7,0-28.5-9.4-28.5-30v-37.6h19.3v34.8c0,11.1,5,16.1,13.5,16.1s15.4-5.7,15.4-18v-32.9h19.3Z"/><path fill="#000" d="M615.4,160.9l6.4-13.9c5.9,3.8,15,6.4,23.2,6.4,8.9,0,12.3-2.4,12.3-6.1,0-10.9-40.2.2-40.2-26.4,0-12.6,11.4-21.5,30.8-21.5,9.2,0,19.3,2.1,25.6,5.8l-6.4,13.7c-6.6-3.7-13.1-5-19.2-5-8.7,0-12.4,2.7-12.4,6.2,0,11.4,40.2.4,40.2,26.6,0,12.4-11.5,21.2-31.4,21.2-11.3.2-22.7-2.9-28.9-7Z"/><path fill="#000" d="M752.4,139.3h-50.4c1.9,8.3,8.9,13.4,19.1,13.4,7.1,0,12.1-2.1,16.7-6.4l10.3,11.1c-6.2,7.1-15.5,10.8-27.5,10.8-23,0-38-14.5-38-34.3s15.2-34.3,35.5-34.3,34.7,13.1,34.7,34.5c0,1.5-.2,3.6-.4,5.2ZM701.8,128h32.8c-1.4-8.4-7.7-13.9-16.3-13.9s-15.1,5.4-16.5,13.9Z"/><path fill="#000" d="M203.6,94.9v39.8c0,21.2-11.9,33.4-33.5,33.4-9.9,0-18.1-2.7-23.7-10.2-5.5,7.2-13.4,10.2-23.9,10.2-21.7,0-33.4-12.2-33.4-33.4v-39.8h20.9v38.2c0,11.9,3.9,17.4,12.7,17.4s13.1-5.5,13.1-17.4v-38.2h20.9v38.2c0,11.9,4.3,17.4,13.1,17.4s12.7-5.5,12.7-17.4v-38.2h21.1Z"/>
    <path fill="#f5ba2b" d="M764.05,157.7c0-7.25,5.38-12,12.12-12s12.12,4.75,12.12,12-5.38,12.25-12.12,12.25-12.12-5.12-12.12-12.25Z"/><path fill="#f5ba2b" d="M868.93,101.7v67.25h-18.62v-7.75c-4.88,5.88-12,8.75-21,8.75-19,0-33.62-13.5-33.62-34.62s14.62-34.63,33.62-34.63c8.25,0,15.25,2.62,20.12,8.12v-7.12h19.5ZM849.8,135.32c0-11.63-7.5-18.63-17.12-18.63s-17.25,7-17.25,18.63,7.5,18.62,17.25,18.62,17.12-7,17.12-18.62Z"/><path fill="#f5ba2b" d="M956.42,135.32c0,21.12-14.62,34.62-33.5,34.62-8.38,0-15.25-2.62-20.25-8.12v31.38h-19.5v-91.5h18.62v7.75c4.88-5.88,12.12-8.75,21.12-8.75,18.88,0,33.5,13.5,33.5,34.63ZM936.67,135.32c0-11.63-7.38-18.63-17.12-18.63s-17.12,7-17.12,18.63,7.38,18.62,17.12,18.62,17.12-7,17.12-18.62Z"/><path fill="#f5ba2b" d="M1038.92,135.32c0,21.12-14.62,34.62-33.5,34.62-8.38,0-15.25-2.62-20.25-8.12v31.38h-19.5v-91.5h18.62v7.75c4.88-5.88,12.12-8.75,21.12-8.75,18.88,0,33.5,13.5,33.5,34.63ZM1019.17,135.32c0-11.63-7.38-18.63-17.12-18.63s-17.12,7-17.12,18.63,7.38,18.62,17.12,18.62,17.12-7,17.12-18.62Z"/>
  </g>
<circle cx="115" cy="2975" r="8" fill="#2ecc71"/>
<text x="130" y="2979" font-family="'SF Mono',monospace" font-size="10" fill="#666">White</text>

<rect x="370" y="2760" width="240" height="200" rx="12" fill="#f5f5f5"/>
<g transform="translate(400,2775) scale(0.26850)">
  <path fill="#1c1c1c" d="M167.6,0C87.6,0,7.6,48,7.6,144s48,169.6,112,192c32,9.6,48-9.6,48-41.6"/>
  <path fill="#0d0d0d" d="M7.6,144c-16,48-6.4,118.4,25.6,156.8,25.6,25.6,64,38.4,86.4,35.2"/>
  <path fill="#f7bb2e" d="M167.6,0c80,0,160,48,160,144s-48,169.6-112,192c-32,9.6-48-9.6-48-41.6"/>
  <path fill="#d9a11a" d="M327.6,144c16,48,6.4,118.4-25.6,156.8-25.6,25.6-64,38.4-86.4,35.2"/>
  <path fill="#fff" d="M52.4,160c38.4-59.73,76.8-89.6,115.2-89.6s76.8,29.87,115.2,89.6c-38.4,59.73-76.8,89.6-115.2,89.6s-76.8-29.87-115.2-89.6Z"/>
  <circle fill="#f7bb2e" cx="167.6" cy="160" r="48"/>
  <circle fill="#0d0d0d" cx="167.6" cy="160" r="20.8"/>
  <circle fill="#fff" opacity=".9" cx="180.4" cy="147.2" r="8.96"/>
  <circle fill="#fff" opacity=".3" cx="158" cy="171.2" r="4.16"/></g>
<g transform="translate(380,2875) scale(0.17814)">
    <path fill="#fff" d="M1054.41,255.2H68.28C30.54,255.2,0,232.3,0,204.1V51.2C0,23,30.54,0,68.28,0h986.14c37.74,0,68.28,22.9,68.28,51.2v152.8c0,28.3-30.54,51.2-68.28,51.2Z"/>
    <path fill="#000" d="M283.1,139.3h-50.4c1.9,8.3,8.9,13.4,19.1,13.4,7.1,0,12.1-2.1,16.7-6.4l10.3,11.1c-6.2,7.1-15.5,10.8-27.5,10.8-23,0-38-14.5-38-34.3s15.2-34.3,35.5-34.3,34.7,13.1,34.7,34.5c-.1,1.5-.3,3.6-.4,5.2ZM232.4,128h32.8c-1.4-8.4-7.7-13.9-16.3-13.9s-15.1,5.4-16.5,13.9Z"/><path fill="#000" d="M366.8,133.8c0,20.9-14.5,34.3-33.2,34.3-8.9,0-16.1-2.8-20.9-8.7v7.7h-18.4v-91.9h19.3v32.3c5-5.4,11.8-8,20.1-8,18.6,0,33.1,13.4,33.1,34.3ZM347.2,133.8c0-11.5-7.3-18.4-17-18.4s-17,6.9-17,18.4,7.3,18.4,17,18.4c9.7.1,17-6.9,17-18.4Z"/><path fill="#000" d="M445.7,129v38.1h-19.3v-35.1c0-10.8-5-15.7-13.5-15.7-9.3,0-16,5.7-16,18v32.9h-19.3v-91.9h19.3v32.2c5.2-5.2,12.6-7.9,21.2-7.9,15.7-.1,27.6,9.1,27.6,29.4Z"/><path fill="#000" d="M454.8,133.8c0-20.1,15.5-34.3,36.6-34.3s36.5,14.2,36.5,34.3-15.4,34.3-36.5,34.3c-21.1,0-36.6-14.2-36.6-34.3ZM508.4,133.8c0-11.5-7.3-18.4-17-18.4s-17.1,6.9-17.1,18.4,7.4,18.4,17.1,18.4c9.7.1,17-6.9,17-18.4Z"/><path fill="#000" d="M603.9,100.5v66.6h-18.3v-7.9c-5.1,5.8-12.5,8.9-20.7,8.9-16.7,0-28.5-9.4-28.5-30v-37.6h19.3v34.8c0,11.1,5,16.1,13.5,16.1s15.4-5.7,15.4-18v-32.9h19.3Z"/><path fill="#000" d="M615.4,160.9l6.4-13.9c5.9,3.8,15,6.4,23.2,6.4,8.9,0,12.3-2.4,12.3-6.1,0-10.9-40.2.2-40.2-26.4,0-12.6,11.4-21.5,30.8-21.5,9.2,0,19.3,2.1,25.6,5.8l-6.4,13.7c-6.6-3.7-13.1-5-19.2-5-8.7,0-12.4,2.7-12.4,6.2,0,11.4,40.2.4,40.2,26.6,0,12.4-11.5,21.2-31.4,21.2-11.3.2-22.7-2.9-28.9-7Z"/><path fill="#000" d="M752.4,139.3h-50.4c1.9,8.3,8.9,13.4,19.1,13.4,7.1,0,12.1-2.1,16.7-6.4l10.3,11.1c-6.2,7.1-15.5,10.8-27.5,10.8-23,0-38-14.5-38-34.3s15.2-34.3,35.5-34.3,34.7,13.1,34.7,34.5c0,1.5-.2,3.6-.4,5.2ZM701.8,128h32.8c-1.4-8.4-7.7-13.9-16.3-13.9s-15.1,5.4-16.5,13.9Z"/><path fill="#000" d="M203.6,94.9v39.8c0,21.2-11.9,33.4-33.5,33.4-9.9,0-18.1-2.7-23.7-10.2-5.5,7.2-13.4,10.2-23.9,10.2-21.7,0-33.4-12.2-33.4-33.4v-39.8h20.9v38.2c0,11.9,3.9,17.4,12.7,17.4s13.1-5.5,13.1-17.4v-38.2h20.9v38.2c0,11.9,4.3,17.4,13.1,17.4s12.7-5.5,12.7-17.4v-38.2h21.1Z"/>
    <path fill="#f5ba2b" d="M764.05,157.7c0-7.25,5.38-12,12.12-12s12.12,4.75,12.12,12-5.38,12.25-12.12,12.25-12.12-5.12-12.12-12.25Z"/><path fill="#f5ba2b" d="M868.93,101.7v67.25h-18.62v-7.75c-4.88,5.88-12,8.75-21,8.75-19,0-33.62-13.5-33.62-34.62s14.62-34.63,33.62-34.63c8.25,0,15.25,2.62,20.12,8.12v-7.12h19.5ZM849.8,135.32c0-11.63-7.5-18.63-17.12-18.63s-17.25,7-17.25,18.63,7.5,18.62,17.25,18.62,17.12-7,17.12-18.62Z"/><path fill="#f5ba2b" d="M956.42,135.32c0,21.12-14.62,34.62-33.5,34.62-8.38,0-15.25-2.62-20.25-8.12v31.38h-19.5v-91.5h18.62v7.75c4.88-5.88,12.12-8.75,21.12-8.75,18.88,0,33.5,13.5,33.5,34.63ZM936.67,135.32c0-11.63-7.38-18.63-17.12-18.63s-17.12,7-17.12,18.63,7.38,18.62,17.12,18.62,17.12-7,17.12-18.62Z"/><path fill="#f5ba2b" d="M1038.92,135.32c0,21.12-14.62,34.62-33.5,34.62-8.38,0-15.25-2.62-20.25-8.12v31.38h-19.5v-91.5h18.62v7.75c4.88-5.88,12.12-8.75,21.12-8.75,18.88,0,33.5,13.5,33.5,34.63ZM1019.17,135.32c0-11.63-7.38-18.63-17.12-18.63s-17.12,7-17.12,18.63,7.38,18.62,17.12,18.62,17.12-7,17.12-18.62Z"/>
  </g>
<circle cx="385" cy="2975" r="8" fill="#2ecc71"/>
<text x="400" y="2979" font-family="'SF Mono',monospace" font-size="10" fill="#666">Light Grey</text>

<rect x="640" y="2760" width="240" height="200" rx="12" fill="#1e1e2e"/>
<g transform="translate(670,2775) scale(0.26850)">
  <path fill="#2a2a3e" d="M167.6,0C87.6,0,7.6,48,7.6,144s48,169.6,112,192c32,9.6,48-9.6,48-41.6"/>
  <path fill="#212135" d="M7.6,144c-16,48-6.4,118.4,25.6,156.8,25.6,25.6,64,38.4,86.4,35.2"/>
  <path fill="#f7bb2e" d="M167.6,0c80,0,160,48,160,144s-48,169.6-112,192c-32,9.6-48-9.6-48-41.6"/>
  <path fill="#d9a11a" d="M327.6,144c16,48,6.4,118.4-25.6,156.8-25.6,25.6-64,38.4-86.4,35.2"/>
  <path fill="#fff" d="M52.4,160c38.4-59.73,76.8-89.6,115.2-89.6s76.8,29.87,115.2,89.6c-38.4,59.73-76.8,89.6-115.2,89.6s-76.8-29.87-115.2-89.6Z"/>
  <circle fill="#f7bb2e" cx="167.6" cy="160" r="48"/>
  <circle fill="#0d0d0d" cx="167.6" cy="160" r="20.8"/>
  <circle fill="#fff" opacity=".9" cx="180.4" cy="147.2" r="8.96"/>
  <circle fill="#fff" opacity=".3" cx="158" cy="171.2" r="4.16"/></g>
<g transform="translate(650,2875) scale(0.17814)">
    <path fill="#0d0d0d" d="M1054.41,255.2H68.28C30.54,255.2,0,232.3,0,204.1V51.2C0,23,30.54,0,68.28,0h986.14c37.74,0,68.28,22.9,68.28,51.2v152.8c0,28.3-30.54,51.2-68.28,51.2Z"/>
    <path fill="#fff" d="M283.1,139.3h-50.4c1.9,8.3,8.9,13.4,19.1,13.4,7.1,0,12.1-2.1,16.7-6.4l10.3,11.1c-6.2,7.1-15.5,10.8-27.5,10.8-23,0-38-14.5-38-34.3s15.2-34.3,35.5-34.3,34.7,13.1,34.7,34.5c-.1,1.5-.3,3.6-.4,5.2ZM232.4,128h32.8c-1.4-8.4-7.7-13.9-16.3-13.9s-15.1,5.4-16.5,13.9Z"/><path fill="#fff" d="M366.8,133.8c0,20.9-14.5,34.3-33.2,34.3-8.9,0-16.1-2.8-20.9-8.7v7.7h-18.4v-91.9h19.3v32.3c5-5.4,11.8-8,20.1-8,18.6,0,33.1,13.4,33.1,34.3ZM347.2,133.8c0-11.5-7.3-18.4-17-18.4s-17,6.9-17,18.4,7.3,18.4,17,18.4c9.7.1,17-6.9,17-18.4Z"/><path fill="#fff" d="M445.7,129v38.1h-19.3v-35.1c0-10.8-5-15.7-13.5-15.7-9.3,0-16,5.7-16,18v32.9h-19.3v-91.9h19.3v32.2c5.2-5.2,12.6-7.9,21.2-7.9,15.7-.1,27.6,9.1,27.6,29.4Z"/><path fill="#fff" d="M454.8,133.8c0-20.1,15.5-34.3,36.6-34.3s36.5,14.2,36.5,34.3-15.4,34.3-36.5,34.3c-21.1,0-36.6-14.2-36.6-34.3ZM508.4,133.8c0-11.5-7.3-18.4-17-18.4s-17.1,6.9-17.1,18.4,7.4,18.4,17.1,18.4c9.7.1,17-6.9,17-18.4Z"/><path fill="#fff" d="M603.9,100.5v66.6h-18.3v-7.9c-5.1,5.8-12.5,8.9-20.7,8.9-16.7,0-28.5-9.4-28.5-30v-37.6h19.3v34.8c0,11.1,5,16.1,13.5,16.1s15.4-5.7,15.4-18v-32.9h19.3Z"/><path fill="#fff" d="M615.4,160.9l6.4-13.9c5.9,3.8,15,6.4,23.2,6.4,8.9,0,12.3-2.4,12.3-6.1,0-10.9-40.2.2-40.2-26.4,0-12.6,11.4-21.5,30.8-21.5,9.2,0,19.3,2.1,25.6,5.8l-6.4,13.7c-6.6-3.7-13.1-5-19.2-5-8.7,0-12.4,2.7-12.4,6.2,0,11.4,40.2.4,40.2,26.6,0,12.4-11.5,21.2-31.4,21.2-11.3.2-22.7-2.9-28.9-7Z"/><path fill="#fff" d="M752.4,139.3h-50.4c1.9,8.3,8.9,13.4,19.1,13.4,7.1,0,12.1-2.1,16.7-6.4l10.3,11.1c-6.2,7.1-15.5,10.8-27.5,10.8-23,0-38-14.5-38-34.3s15.2-34.3,35.5-34.3,34.7,13.1,34.7,34.5c0,1.5-.2,3.6-.4,5.2ZM701.8,128h32.8c-1.4-8.4-7.7-13.9-16.3-13.9s-15.1,5.4-16.5,13.9Z"/><path fill="#fff" d="M203.6,94.9v39.8c0,21.2-11.9,33.4-33.5,33.4-9.9,0-18.1-2.7-23.7-10.2-5.5,7.2-13.4,10.2-23.9,10.2-21.7,0-33.4-12.2-33.4-33.4v-39.8h20.9v38.2c0,11.9,3.9,17.4,12.7,17.4s13.1-5.5,13.1-17.4v-38.2h20.9v38.2c0,11.9,4.3,17.4,13.1,17.4s12.7-5.5,12.7-17.4v-38.2h21.1Z"/>
    <path fill="#f5ba2b" d="M764.05,157.7c0-7.25,5.38-12,12.12-12s12.12,4.75,12.12,12-5.38,12.25-12.12,12.25-12.12-5.12-12.12-12.25Z"/><path fill="#f5ba2b" d="M868.93,101.7v67.25h-18.62v-7.75c-4.88,5.88-12,8.75-21,8.75-19,0-33.62-13.5-33.62-34.62s14.62-34.63,33.62-34.63c8.25,0,15.25,2.62,20.12,8.12v-7.12h19.5ZM849.8,135.32c0-11.63-7.5-18.63-17.12-18.63s-17.25,7-17.25,18.63,7.5,18.62,17.25,18.62,17.12-7,17.12-18.62Z"/><path fill="#f5ba2b" d="M956.42,135.32c0,21.12-14.62,34.62-33.5,34.62-8.38,0-15.25-2.62-20.25-8.12v31.38h-19.5v-91.5h18.62v7.75c4.88-5.88,12.12-8.75,21.12-8.75,18.88,0,33.5,13.5,33.5,34.63ZM936.67,135.32c0-11.63-7.38-18.63-17.12-18.63s-17.12,7-17.12,18.63,7.38,18.62,17.12,18.62,17.12-7,17.12-18.62Z"/><path fill="#f5ba2b" d="M1038.92,135.32c0,21.12-14.62,34.62-33.5,34.62-8.38,0-15.25-2.62-20.25-8.12v31.38h-19.5v-91.5h18.62v7.75c4.88-5.88,12.12-8.75,21.12-8.75,18.88,0,33.5,13.5,33.5,34.63ZM1019.17,135.32c0-11.63-7.38-18.63-17.12-18.63s-17.12,7-17.12,18.63,7.38,18.62,17.12,18.62,17.12-7,17.12-18.62Z"/>
  </g>
<circle cx="655" cy="2975" r="8" fill="#2ecc71"/>
<text x="670" y="2979" font-family="'SF Mono',monospace" font-size="10" fill="#666">Dark Grey</text>

<rect x="910" y="2760" width="240" height="200" rx="12" fill="#0d0d0d"/>
<g transform="translate(940,2775) scale(0.26850)">
  <path fill="#2a2a3e" d="M167.6,0C87.6,0,7.6,48,7.6,144s48,169.6,112,192c32,9.6,48-9.6,48-41.6"/>
  <path fill="#212135" d="M7.6,144c-16,48-6.4,118.4,25.6,156.8,25.6,25.6,64,38.4,86.4,35.2"/>
  <path fill="#f7bb2e" d="M167.6,0c80,0,160,48,160,144s-48,169.6-112,192c-32,9.6-48-9.6-48-41.6"/>
  <path fill="#d9a11a" d="M327.6,144c16,48,6.4,118.4-25.6,156.8-25.6,25.6-64,38.4-86.4,35.2"/>
  <path fill="#fff" d="M52.4,160c38.4-59.73,76.8-89.6,115.2-89.6s76.8,29.87,115.2,89.6c-38.4,59.73-76.8,89.6-115.2,89.6s-76.8-29.87-115.2-89.6Z"/>
  <circle fill="#f7bb2e" cx="167.6" cy="160" r="48"/>
  <circle fill="#0d0d0d" cx="167.6" cy="160" r="20.8"/>
  <circle fill="#fff" opacity=".9" cx="180.4" cy="147.2" r="8.96"/>
  <circle fill="#fff" opacity=".3" cx="158" cy="171.2" r="4.16"/></g>
<g transform="translate(920,2875) scale(0.17814)">
    <path fill="#0d0d0d" d="M1054.41,255.2H68.28C30.54,255.2,0,232.3,0,204.1V51.2C0,23,30.54,0,68.28,0h986.14c37.74,0,68.28,22.9,68.28,51.2v152.8c0,28.3-30.54,51.2-68.28,51.2Z"/>
    <path fill="#fff" d="M283.1,139.3h-50.4c1.9,8.3,8.9,13.4,19.1,13.4,7.1,0,12.1-2.1,16.7-6.4l10.3,11.1c-6.2,7.1-15.5,10.8-27.5,10.8-23,0-38-14.5-38-34.3s15.2-34.3,35.5-34.3,34.7,13.1,34.7,34.5c-.1,1.5-.3,3.6-.4,5.2ZM232.4,128h32.8c-1.4-8.4-7.7-13.9-16.3-13.9s-15.1,5.4-16.5,13.9Z"/><path fill="#fff" d="M366.8,133.8c0,20.9-14.5,34.3-33.2,34.3-8.9,0-16.1-2.8-20.9-8.7v7.7h-18.4v-91.9h19.3v32.3c5-5.4,11.8-8,20.1-8,18.6,0,33.1,13.4,33.1,34.3ZM347.2,133.8c0-11.5-7.3-18.4-17-18.4s-17,6.9-17,18.4,7.3,18.4,17,18.4c9.7.1,17-6.9,17-18.4Z"/><path fill="#fff" d="M445.7,129v38.1h-19.3v-35.1c0-10.8-5-15.7-13.5-15.7-9.3,0-16,5.7-16,18v32.9h-19.3v-91.9h19.3v32.2c5.2-5.2,12.6-7.9,21.2-7.9,15.7-.1,27.6,9.1,27.6,29.4Z"/><path fill="#fff" d="M454.8,133.8c0-20.1,15.5-34.3,36.6-34.3s36.5,14.2,36.5,34.3-15.4,34.3-36.5,34.3c-21.1,0-36.6-14.2-36.6-34.3ZM508.4,133.8c0-11.5-7.3-18.4-17-18.4s-17.1,6.9-17.1,18.4,7.4,18.4,17.1,18.4c9.7.1,17-6.9,17-18.4Z"/><path fill="#fff" d="M603.9,100.5v66.6h-18.3v-7.9c-5.1,5.8-12.5,8.9-20.7,8.9-16.7,0-28.5-9.4-28.5-30v-37.6h19.3v34.8c0,11.1,5,16.1,13.5,16.1s15.4-5.7,15.4-18v-32.9h19.3Z"/><path fill="#fff" d="M615.4,160.9l6.4-13.9c5.9,3.8,15,6.4,23.2,6.4,8.9,0,12.3-2.4,12.3-6.1,0-10.9-40.2.2-40.2-26.4,0-12.6,11.4-21.5,30.8-21.5,9.2,0,19.3,2.1,25.6,5.8l-6.4,13.7c-6.6-3.7-13.1-5-19.2-5-8.7,0-12.4,2.7-12.4,6.2,0,11.4,40.2.4,40.2,26.6,0,12.4-11.5,21.2-31.4,21.2-11.3.2-22.7-2.9-28.9-7Z"/><path fill="#fff" d="M752.4,139.3h-50.4c1.9,8.3,8.9,13.4,19.1,13.4,7.1,0,12.1-2.1,16.7-6.4l10.3,11.1c-6.2,7.1-15.5,10.8-27.5,10.8-23,0-38-14.5-38-34.3s15.2-34.3,35.5-34.3,34.7,13.1,34.7,34.5c0,1.5-.2,3.6-.4,5.2ZM701.8,128h32.8c-1.4-8.4-7.7-13.9-16.3-13.9s-15.1,5.4-16.5,13.9Z"/><path fill="#fff" d="M203.6,94.9v39.8c0,21.2-11.9,33.4-33.5,33.4-9.9,0-18.1-2.7-23.7-10.2-5.5,7.2-13.4,10.2-23.9,10.2-21.7,0-33.4-12.2-33.4-33.4v-39.8h20.9v38.2c0,11.9,3.9,17.4,12.7,17.4s13.1-5.5,13.1-17.4v-38.2h20.9v38.2c0,11.9,4.3,17.4,13.1,17.4s12.7-5.5,12.7-17.4v-38.2h21.1Z"/>
    <path fill="#f5ba2b" d="M764.05,157.7c0-7.25,5.38-12,12.12-12s12.12,4.75,12.12,12-5.38,12.25-12.12,12.25-12.12-5.12-12.12-12.25Z"/><path fill="#f5ba2b" d="M868.93,101.7v67.25h-18.62v-7.75c-4.88,5.88-12,8.75-21,8.75-19,0-33.62-13.5-33.62-34.62s14.62-34.63,33.62-34.63c8.25,0,15.25,2.62,20.12,8.12v-7.12h19.5ZM849.8,135.32c0-11.63-7.5-18.63-17.12-18.63s-17.25,7-17.25,18.63,7.5,18.62,17.25,18.62,17.12-7,17.12-18.62Z"/><path fill="#f5ba2b" d="M956.42,135.32c0,21.12-14.62,34.62-33.5,34.62-8.38,0-15.25-2.62-20.25-8.12v31.38h-19.5v-91.5h18.62v7.75c4.88-5.88,12.12-8.75,21.12-8.75,18.88,0,33.5,13.5,33.5,34.63ZM936.67,135.32c0-11.63-7.38-18.63-17.12-18.63s-17.12,7-17.12,18.63,7.38,18.62,17.12,18.62,17.12-7,17.12-18.62Z"/><path fill="#f5ba2b" d="M1038.92,135.32c0,21.12-14.62,34.62-33.5,34.62-8.38,0-15.25-2.62-20.25-8.12v31.38h-19.5v-91.5h18.62v7.75c4.88-5.88,12.12-8.75,21.12-8.75,18.88,0,33.5,13.5,33.5,34.63ZM1019.17,135.32c0-11.63-7.38-18.63-17.12-18.63s-17.12,7-17.12,18.63,7.38,18.62,17.12,18.62,17.12-7,17.12-18.62Z"/>
  </g>
<circle cx="925" cy="2975" r="8" fill="#2ecc71"/>
<text x="940" y="2979" font-family="'SF Mono',monospace" font-size="10" fill="#666">Black</text>

<rect x="1180" y="2760" width="240" height="200" rx="12" fill="#F7BB2E"/>
<g transform="translate(1210,2775) scale(0.26850)">
  <path fill="#1c1c1c" d="M167.6,0C87.6,0,7.6,48,7.6,144s48,169.6,112,192c32,9.6,48-9.6,48-41.6"/>
  <path fill="#0d0d0d" d="M7.6,144c-16,48-6.4,118.4,25.6,156.8,25.6,25.6,64,38.4,86.4,35.2"/>
  <path fill="#f7bb2e" d="M167.6,0c80,0,160,48,160,144s-48,169.6-112,192c-32,9.6-48-9.6-48-41.6"/>
  <path fill="#d9a11a" d="M327.6,144c16,48,6.4,118.4-25.6,156.8-25.6,25.6-64,38.4-86.4,35.2"/>
  <path fill="#fff" d="M52.4,160c38.4-59.73,76.8-89.6,115.2-89.6s76.8,29.87,115.2,89.6c-38.4,59.73-76.8,89.6-115.2,89.6s-76.8-29.87-115.2-89.6Z"/>
  <circle fill="#f7bb2e" cx="167.6" cy="160" r="48"/>
  <circle fill="#0d0d0d" cx="167.6" cy="160" r="20.8"/>
  <circle fill="#fff" opacity=".9" cx="180.4" cy="147.2" r="8.96"/>
  <circle fill="#fff" opacity=".3" cx="158" cy="171.2" r="4.16"/></g>
<g transform="translate(1190,2875) scale(0.17814)">
    <path fill="#fff" d="M1054.41,255.2H68.28C30.54,255.2,0,232.3,0,204.1V51.2C0,23,30.54,0,68.28,0h986.14c37.74,0,68.28,22.9,68.28,51.2v152.8c0,28.3-30.54,51.2-68.28,51.2Z"/>
    <path fill="#000" d="M283.1,139.3h-50.4c1.9,8.3,8.9,13.4,19.1,13.4,7.1,0,12.1-2.1,16.7-6.4l10.3,11.1c-6.2,7.1-15.5,10.8-27.5,10.8-23,0-38-14.5-38-34.3s15.2-34.3,35.5-34.3,34.7,13.1,34.7,34.5c-.1,1.5-.3,3.6-.4,5.2ZM232.4,128h32.8c-1.4-8.4-7.7-13.9-16.3-13.9s-15.1,5.4-16.5,13.9Z"/><path fill="#000" d="M366.8,133.8c0,20.9-14.5,34.3-33.2,34.3-8.9,0-16.1-2.8-20.9-8.7v7.7h-18.4v-91.9h19.3v32.3c5-5.4,11.8-8,20.1-8,18.6,0,33.1,13.4,33.1,34.3ZM347.2,133.8c0-11.5-7.3-18.4-17-18.4s-17,6.9-17,18.4,7.3,18.4,17,18.4c9.7.1,17-6.9,17-18.4Z"/><path fill="#000" d="M445.7,129v38.1h-19.3v-35.1c0-10.8-5-15.7-13.5-15.7-9.3,0-16,5.7-16,18v32.9h-19.3v-91.9h19.3v32.2c5.2-5.2,12.6-7.9,21.2-7.9,15.7-.1,27.6,9.1,27.6,29.4Z"/><path fill="#000" d="M454.8,133.8c0-20.1,15.5-34.3,36.6-34.3s36.5,14.2,36.5,34.3-15.4,34.3-36.5,34.3c-21.1,0-36.6-14.2-36.6-34.3ZM508.4,133.8c0-11.5-7.3-18.4-17-18.4s-17.1,6.9-17.1,18.4,7.4,18.4,17.1,18.4c9.7.1,17-6.9,17-18.4Z"/><path fill="#000" d="M603.9,100.5v66.6h-18.3v-7.9c-5.1,5.8-12.5,8.9-20.7,8.9-16.7,0-28.5-9.4-28.5-30v-37.6h19.3v34.8c0,11.1,5,16.1,13.5,16.1s15.4-5.7,15.4-18v-32.9h19.3Z"/><path fill="#000" d="M615.4,160.9l6.4-13.9c5.9,3.8,15,6.4,23.2,6.4,8.9,0,12.3-2.4,12.3-6.1,0-10.9-40.2.2-40.2-26.4,0-12.6,11.4-21.5,30.8-21.5,9.2,0,19.3,2.1,25.6,5.8l-6.4,13.7c-6.6-3.7-13.1-5-19.2-5-8.7,0-12.4,2.7-12.4,6.2,0,11.4,40.2.4,40.2,26.6,0,12.4-11.5,21.2-31.4,21.2-11.3.2-22.7-2.9-28.9-7Z"/><path fill="#000" d="M752.4,139.3h-50.4c1.9,8.3,8.9,13.4,19.1,13.4,7.1,0,12.1-2.1,16.7-6.4l10.3,11.1c-6.2,7.1-15.5,10.8-27.5,10.8-23,0-38-14.5-38-34.3s15.2-34.3,35.5-34.3,34.7,13.1,34.7,34.5c0,1.5-.2,3.6-.4,5.2ZM701.8,128h32.8c-1.4-8.4-7.7-13.9-16.3-13.9s-15.1,5.4-16.5,13.9Z"/><path fill="#000" d="M203.6,94.9v39.8c0,21.2-11.9,33.4-33.5,33.4-9.9,0-18.1-2.7-23.7-10.2-5.5,7.2-13.4,10.2-23.9,10.2-21.7,0-33.4-12.2-33.4-33.4v-39.8h20.9v38.2c0,11.9,3.9,17.4,12.7,17.4s13.1-5.5,13.1-17.4v-38.2h20.9v38.2c0,11.9,4.3,17.4,13.1,17.4s12.7-5.5,12.7-17.4v-38.2h21.1Z"/>
    <path fill="#f5ba2b" d="M764.05,157.7c0-7.25,5.38-12,12.12-12s12.12,4.75,12.12,12-5.38,12.25-12.12,12.25-12.12-5.12-12.12-12.25Z"/><path fill="#f5ba2b" d="M868.93,101.7v67.25h-18.62v-7.75c-4.88,5.88-12,8.75-21,8.75-19,0-33.62-13.5-33.62-34.62s14.62-34.63,33.62-34.63c8.25,0,15.25,2.62,20.12,8.12v-7.12h19.5ZM849.8,135.32c0-11.63-7.5-18.63-17.12-18.63s-17.25,7-17.25,18.63,7.5,18.62,17.25,18.62,17.12-7,17.12-18.62Z"/><path fill="#f5ba2b" d="M956.42,135.32c0,21.12-14.62,34.62-33.5,34.62-8.38,0-15.25-2.62-20.25-8.12v31.38h-19.5v-91.5h18.62v7.75c4.88-5.88,12.12-8.75,21.12-8.75,18.88,0,33.5,13.5,33.5,34.63ZM936.67,135.32c0-11.63-7.38-18.63-17.12-18.63s-17.12,7-17.12,18.63,7.38,18.62,17.12,18.62,17.12-7,17.12-18.62Z"/><path fill="#f5ba2b" d="M1038.92,135.32c0,21.12-14.62,34.62-33.5,34.62-8.38,0-15.25-2.62-20.25-8.12v31.38h-19.5v-91.5h18.62v7.75c4.88-5.88,12.12-8.75,21.12-8.75,18.88,0,33.5,13.5,33.5,34.63ZM1019.17,135.32c0-11.63-7.38-18.63-17.12-18.63s-17.12,7-17.12,18.63,7.38,18.62,17.12,18.62,17.12-7,17.12-18.62Z"/>
  </g>
<circle cx="1195" cy="2975" r="8" fill="#e74c3c"/>
<text x="1210" y="2979" font-family="'SF Mono',monospace" font-size="10" fill="#666">Avoid</text>

<!-- ============ 08 USAGE RULES ============ -->
<text x="100" y="3060" font-family="'Courier Prime','American Typewriter',monospace" font-size="14" fill="#999" letter-spacing="4">08 — USAGE RULES</text>
<line x1="100" y1="3075" x2="1700" y2="3075" stroke="#e0e0e0" stroke-width="1"/>

<rect x="100" y="3100" width="340" height="190" rx="12" fill="#fff" stroke="#eee"/>
<circle cx="120" cy="3122" r="8" fill="#2ecc71"/>
<text x="135" y="3126" font-family="'SF Mono',monospace" font-size="10" fill="#2ecc71" letter-spacing="1">MAINTAIN CLEAR SPACE</text>
<g transform="translate(195,3140) scale(0.32816)">
  <path fill="#1c1c1c" d="M167.6,0C87.6,0,7.6,48,7.6,144s48,169.6,112,192c32,9.6,48-9.6,48-41.6"/>
  <path fill="#0d0d0d" d="M7.6,144c-16,48-6.4,118.4,25.6,156.8,25.6,25.6,64,38.4,86.4,35.2"/>
  <path fill="#f7bb2e" d="M167.6,0c80,0,160,48,160,144s-48,169.6-112,192c-32,9.6-48-9.6-48-41.6"/>
  <path fill="#d9a11a" d="M327.6,144c16,48,6.4,118.4-25.6,156.8-25.6,25.6-64,38.4-86.4,35.2"/>
  <path fill="#fff" d="M52.4,160c38.4-59.73,76.8-89.6,115.2-89.6s76.8,29.87,115.2,89.6c-38.4,59.73-76.8,89.6-115.2,89.6s-76.8-29.87-115.2-89.6Z"/>
  <circle fill="#f7bb2e" cx="167.6" cy="160" r="48"/>
  <circle fill="#0d0d0d" cx="167.6" cy="160" r="20.8"/>
  <circle fill="#fff" opacity=".9" cx="180.4" cy="147.2" r="8.96"/>
  <circle fill="#fff" opacity=".3" cx="158" cy="171.2" r="4.16"/></g>

<rect x="470" y="3100" width="340" height="190" rx="12" fill="#0d0d0d"/>
<circle cx="490" cy="3122" r="8" fill="#2ecc71"/>
<text x="505" y="3126" font-family="'SF Mono',monospace" font-size="10" fill="#2ecc71" letter-spacing="1">USE DARK VARIANT ON DARK</text>
<g transform="translate(565,3140) scale(0.32816)">
  <path fill="#2a2a3e" d="M167.6,0C87.6,0,7.6,48,7.6,144s48,169.6,112,192c32,9.6,48-9.6,48-41.6"/>
  <path fill="#212135" d="M7.6,144c-16,48-6.4,118.4,25.6,156.8,25.6,25.6,64,38.4,86.4,35.2"/>
  <path fill="#f7bb2e" d="M167.6,0c80,0,160,48,160,144s-48,169.6-112,192c-32,9.6-48-9.6-48-41.6"/>
  <path fill="#d9a11a" d="M327.6,144c16,48,6.4,118.4-25.6,156.8-25.6,25.6-64,38.4-86.4,35.2"/>
  <path fill="#fff" d="M52.4,160c38.4-59.73,76.8-89.6,115.2-89.6s76.8,29.87,115.2,89.6c-38.4,59.73-76.8,89.6-115.2,89.6s-76.8-29.87-115.2-89.6Z"/>
  <circle fill="#f7bb2e" cx="167.6" cy="160" r="48"/>
  <circle fill="#0d0d0d" cx="167.6" cy="160" r="20.8"/>
  <circle fill="#fff" opacity=".9" cx="180.4" cy="147.2" r="8.96"/>
  <circle fill="#fff" opacity=".3" cx="158" cy="171.2" r="4.16"/></g>

<rect x="840" y="3100" width="340" height="190" rx="12" fill="#fff" stroke="#eee"/>
<circle cx="860" cy="3122" r="8" fill="#e74c3c"/>
<text x="875" y="3126" font-family="'SF Mono',monospace" font-size="10" fill="#e74c3c" letter-spacing="1">DON'T STRETCH</text>
<g transform="translate(925,3150) scale(0.4,0.22)">
  <path fill="#1c1c1c" d="M167.6,0C87.6,0,7.6,48,7.6,144s48,169.6,112,192c32,9.6,48-9.6,48-41.6"/>
  <path fill="#0d0d0d" d="M7.6,144c-16,48-6.4,118.4,25.6,156.8,25.6,25.6,64,38.4,86.4,35.2"/>
  <path fill="#f7bb2e" d="M167.6,0c80,0,160,48,160,144s-48,169.6-112,192c-32,9.6-48-9.6-48-41.6"/>
  <path fill="#d9a11a" d="M327.6,144c16,48,6.4,118.4-25.6,156.8-25.6,25.6-64,38.4-86.4,35.2"/>
  <path fill="#fff" d="M52.4,160c38.4-59.73,76.8-89.6,115.2-89.6s76.8,29.87,115.2,89.6c-38.4,59.73-76.8,89.6-115.2,89.6s-76.8-29.87-115.2-89.6Z"/>
  <circle fill="#f7bb2e" cx="167.6" cy="160" r="48"/>
  <circle fill="#0d0d0d" cx="167.6" cy="160" r="20.8"/>
  <circle fill="#fff" opacity=".9" cx="180.4" cy="147.2" r="8.96"/>
  <circle fill="#fff" opacity=".3" cx="158" cy="171.2" r="4.16"/></g>

<rect x="1210" y="3100" width="340" height="190" rx="12" fill="#0d0d0d"/>
<circle cx="1230" cy="3122" r="8" fill="#e74c3c"/>
<text x="1245" y="3126" font-family="'SF Mono',monospace" font-size="10" fill="#e74c3c" letter-spacing="1">DON'T USE LIGHT ON DARK</text>
<g transform="translate(1305,3140) scale(0.32816)">
  <path fill="#1c1c1c" d="M167.6,0C87.6,0,7.6,48,7.6,144s48,169.6,112,192c32,9.6,48-9.6,48-41.6"/>
  <path fill="#0d0d0d" d="M7.6,144c-16,48-6.4,118.4,25.6,156.8,25.6,25.6,64,38.4,86.4,35.2"/>
  <path fill="#f7bb2e" d="M167.6,0c80,0,160,48,160,144s-48,169.6-112,192c-32,9.6-48-9.6-48-41.6"/>
  <path fill="#d9a11a" d="M327.6,144c16,48,6.4,118.4-25.6,156.8-25.6,25.6-64,38.4-86.4,35.2"/>
  <path fill="#fff" d="M52.4,160c38.4-59.73,76.8-89.6,115.2-89.6s76.8,29.87,115.2,89.6c-38.4,59.73-76.8,89.6-115.2,89.6s-76.8-29.87-115.2-89.6Z"/>
  <circle fill="#f7bb2e" cx="167.6" cy="160" r="48"/>
  <circle fill="#0d0d0d" cx="167.6" cy="160" r="20.8"/>
  <circle fill="#fff" opacity=".9" cx="180.4" cy="147.2" r="8.96"/>
  <circle fill="#fff" opacity=".3" cx="158" cy="171.2" r="4.16"/></g>

<!-- ============ 09 TYPOGRAPHY ============ -->
<text x="100" y="3370" font-family="'Courier Prime','American Typewriter',monospace" font-size="14" fill="#999" letter-spacing="4">09 — TYPOGRAPHY</text>
<line x1="100" y1="3385" x2="1700" y2="3385" stroke="#e0e0e0" stroke-width="1"/>

<rect x="100" y="3410" width="700" height="300" rx="12" fill="#fff" stroke="#eee"/>
<text x="140" y="3448" font-family="'SF Mono',monospace" font-size="10" fill="#bbb" letter-spacing="2">LOGO TYPEFACE</text>
<text x="140" y="3475" font-family="'SF Mono',monospace" font-size="10" fill="#999">Custom wordmark — rounded terminals, geometric sans-serif</text>
<text x="140" y="3515" font-family="'SF Mono',monospace" font-size="10" fill="#bbb" letter-spacing="2">UI / BODY</text>
<text x="140" y="3545" font-family="'Nunito',sans-serif" font-size="22" fill="#0d0d0d" font-weight="700">Nunito Bold — Headings</text>
<text x="140" y="3572" font-family="'Nunito',sans-serif" font-size="16" fill="#666">Nunito Regular — Body text and interface</text>
<text x="140" y="3610" font-family="'SF Mono',monospace" font-size="10" fill="#bbb" letter-spacing="2">CODE / TAGLINE</text>
<text x="140" y="3640" font-family="'Courier Prime','American Typewriter',monospace" font-size="18" fill="#0d0d0d">Courier Prime — AI-native content engine</text>
<text x="140" y="3668" font-family="'SF Mono','Fira Code',monospace" font-size="14" fill="#666">SF Mono / Fira Code — code, CLI, developer UI</text>

<!-- ============ 10 FILES ============ -->
<text x="100" y="3790" font-family="'Courier Prime','American Typewriter',monospace" font-size="14" fill="#999" letter-spacing="4">10 — ASSET FILES</text>
<line x1="100" y1="3805" x2="1700" y2="3805" stroke="#e0e0e0" stroke-width="1"/>

<rect x="100" y="3830" width="900" height="310" rx="12" fill="#0d0d0d"/>
<text x="140" y="3868" font-family="'SF Mono',monospace" font-size="13" fill="#F7BB2E">brand/</text>
<text x="160" y="3896" font-family="'SF Mono',monospace" font-size="12" fill="#888">├── webhouse_app-light-icon.svg</text>
<text x="160" y="3920" font-family="'SF Mono',monospace" font-size="12" fill="#888">├── webhouse_app-dark-icon.svg</text>
<text x="160" y="3944" font-family="'SF Mono',monospace" font-size="12" fill="#888">├── webhouse_app-light.svg</text>
<text x="160" y="3968" font-family="'SF Mono',monospace" font-size="12" fill="#888">├── webhouse_app-dark.svg</text>
<text x="160" y="3996" font-family="'SF Mono',monospace" font-size="12" fill="#555">├── favicon-16.png / -32.png / -64.png</text>
<text x="160" y="4020" font-family="'SF Mono',monospace" font-size="12" fill="#555">├── apple-touch-icon-180.png</text>
<text x="160" y="4044" font-family="'SF Mono',monospace" font-size="12" fill="#555">├── og-image-1200x630.png</text>
<text x="160" y="4068" font-family="'SF Mono',monospace" font-size="12" fill="#555">├── twitter-card-1200x628.png</text>
<text x="160" y="4092" font-family="'SF Mono',monospace" font-size="12" fill="#555">└── brand-guide.svg</text>
<text x="550" y="4092" font-family="'SF Mono',monospace" font-size="11" fill="#F7BB2E">← this file</text>

<!-- FOOTER -->
<rect x="0" y="4140" width="1800" height="60" fill="#0d0d0d"/>
<text x="900" y="4175" font-family="'Courier Prime','American Typewriter',monospace" font-size="13" fill="#F7BB2E" text-anchor="middle" letter-spacing="4">© 2026 WEBHOUSE — webhouse.app — @webhouse/cms</text>

</svg>