<?xml version="1.0" encoding="UTF-8"?>
<svg xmlns="http://www.w3.org/2000/svg" xmlns:xlink="http://www.w3.org/1999/xlink" width="1440" height="7833" viewBox="0 0 1440 7833">
<rect width="1440" height="7833" fill="#0D0D0D"/>
<text x="720" y="40" text-anchor="middle" font-family="Helvetica, Arial, sans-serif" font-size="28" font-weight="700" fill="#F7BB2E">F63 Component Audit — Visual Reference</text>
<text x="720" y="65" text-anchor="middle" font-family="Helvetica, Arial, sans-serif" font-size="14" fill="#888">webhouse.app CMS Admin · 2026-03-29 · 25 components</text>
<text x="30" y="160" font-family="Helvetica, Arial, sans-serif" font-size="18" font-weight="700" fill="#F7BB2E" letter-spacing="0.06em">NAVIGATION</text>
<line x1="30" y1="166" x2="1410" y2="166" stroke="#333" stroke-width="1"/>
<rect x="28" y="183" width="260" height="904" rx="4" fill="none" stroke="#F7BB2E" stroke-width="1.5" opacity="0.5"/>
<image x="30" y="185" width="256" height="900" xlink:href="crops/01-sidebar.png" preserveAspectRatio="xMidYMid meet"/>
<circle cx="42" cy="197" r="12" fill="#F7BB2E"/>
<text x="42" y="201" text-anchor="middle" font-family="Helvetica, Arial, sans-serif" font-size="11" font-weight="700" fill="#0D0D0D">1</text>
<text x="30" y="1099" font-family="Helvetica, Arial, sans-serif" font-size="11" font-weight="600" fill="#ccc">#1 Sidebar</text>
<text x="30" y="1111" font-family="Helvetica, Arial, sans-serif" font-size="9" fill="#666">Content/Services</text>
<text x="30" y="1211" font-family="Helvetica, Arial, sans-serif" font-size="18" font-weight="700" fill="#F7BB2E" letter-spacing="0.06em">LISTS</text>
<line x1="30" y1="1217" x2="1410" y2="1217" stroke="#333" stroke-width="1"/>
<rect x="28" y="1234" width="604" height="143" rx="4" fill="none" stroke="#F7BB2E" stroke-width="1.5" opacity="0.5"/>
<image x="30" y="1236" width="600" height="139" xlink:href="crops/02-collectionlist-services.png" preserveAspectRatio="xMidYMid meet"/>
<circle cx="42" cy="1248" r="12" fill="#F7BB2E"/>
<text x="42" y="1252" text-anchor="middle" font-family="Helvetica, Arial, sans-serif" font-size="11" font-weight="700" fill="#0D0D0D">2</text>
<text x="30" y="1389" font-family="Helvetica, Arial, sans-serif" font-size="11" font-weight="600" fill="#ccc">#2 CollectionList-Services</text>
<text x="30" y="1401" font-family="Helvetica, Arial, sans-serif" font-size="9" fill="#666">Content/Services</text>
<rect x="648" y="1234" width="604" height="36" rx="4" fill="none" stroke="#F7BB2E" stroke-width="1.5" opacity="0.5"/>
<image x="650" y="1236" width="600" height="32" xlink:href="crops/03-collectionitem.png" preserveAspectRatio="xMidYMid meet"/>
<circle cx="662" cy="1248" r="12" fill="#F7BB2E"/>
<text x="662" y="1252" text-anchor="middle" font-family="Helvetica, Arial, sans-serif" font-size="11" font-weight="700" fill="#0D0D0D">3</text>
<text x="650" y="1282" font-family="Helvetica, Arial, sans-serif" font-size="11" font-weight="600" fill="#ccc">#3 CollectionItem</text>
<text x="650" y="1294" font-family="Helvetica, Arial, sans-serif" font-size="9" fill="#666">Content/Services</text>
<text x="30" y="1501" font-family="Helvetica, Arial, sans-serif" font-size="18" font-weight="700" fill="#F7BB2E" letter-spacing="0.06em">EDITORS</text>
<line x1="30" y1="1507" x2="1410" y2="1507" stroke="#333" stroke-width="1"/>
<rect x="28" y="1524" width="604" height="492" rx="4" fill="none" stroke="#F7BB2E" stroke-width="1.5" opacity="0.5"/>
<image x="30" y="1526" width="600" height="488" xlink:href="crops/04-documenteditor.png" preserveAspectRatio="xMidYMid meet"/>
<circle cx="42" cy="1538" r="12" fill="#F7BB2E"/>
<text x="42" y="1542" text-anchor="middle" font-family="Helvetica, Arial, sans-serif" font-size="11" font-weight="700" fill="#0D0D0D">4</text>
<text x="30" y="2028" font-family="Helvetica, Arial, sans-serif" font-size="11" font-weight="600" fill="#ccc">#4 DocumentEditor</text>
<text x="30" y="2040" font-family="Helvetica, Arial, sans-serif" font-size="9" fill="#666">Services/starter-package</text>
<text x="30" y="2140" font-family="Helvetica, Arial, sans-serif" font-size="18" font-weight="700" fill="#F7BB2E" letter-spacing="0.06em">BUTTONS</text>
<line x1="30" y1="2146" x2="1410" y2="2146" stroke="#333" stroke-width="1"/>
<rect x="28" y="2163" width="604" height="28" rx="4" fill="none" stroke="#F7BB2E" stroke-width="1.5" opacity="0.5"/>
<image x="30" y="2165" width="600" height="24" xlink:href="crops/05-actionbar.png" preserveAspectRatio="xMidYMid meet"/>
<circle cx="42" cy="2177" r="12" fill="#F7BB2E"/>
<text x="42" y="2181" text-anchor="middle" font-family="Helvetica, Arial, sans-serif" font-size="11" font-weight="700" fill="#0D0D0D">5</text>
<text x="30" y="2203" font-family="Helvetica, Arial, sans-serif" font-size="11" font-weight="600" fill="#ccc">#5 ActionBar</text>
<text x="30" y="2215" font-family="Helvetica, Arial, sans-serif" font-size="9" fill="#666">Services/starter-package</text>
<rect x="648" y="2163" width="76" height="33" rx="4" fill="none" stroke="#F7BB2E" stroke-width="1.5" opacity="0.5"/>
<image x="650" y="2165" width="72" height="29" xlink:href="crops/06-btnsave.png" preserveAspectRatio="xMidYMid meet"/>
<circle cx="662" cy="2177" r="12" fill="#F7BB2E"/>
<text x="662" y="2181" text-anchor="middle" font-family="Helvetica, Arial, sans-serif" font-size="11" font-weight="700" fill="#0D0D0D">6</text>
<text x="650" y="2208" font-family="Helvetica, Arial, sans-serif" font-size="11" font-weight="600" fill="#ccc">#6 BtnSave</text>
<text x="650" y="2220" font-family="Helvetica, Arial, sans-serif" font-size="9" fill="#666">Services/starter-package</text>
<rect x="740" y="2163" width="150" height="37" rx="4" fill="none" stroke="#F7BB2E" stroke-width="1.5" opacity="0.5"/>
<image x="742" y="2165" width="146" height="33" xlink:href="crops/25-btncreate.png" preserveAspectRatio="xMidYMid meet"/>
<circle cx="754" cy="2177" r="12" fill="#F7BB2E"/>
<text x="754" y="2181" text-anchor="middle" font-family="Helvetica, Arial, sans-serif" font-size="11" font-weight="700" fill="#0D0D0D">25</text>
<text x="742" y="2212" font-family="Helvetica, Arial, sans-serif" font-size="11" font-weight="600" fill="#ccc">#25 BtnCreate</text>
<text x="742" y="2224" font-family="Helvetica, Arial, sans-serif" font-size="9" fill="#666">Content/Posts</text>
<text x="30" y="2324" font-family="Helvetica, Arial, sans-serif" font-size="18" font-weight="700" fill="#F7BB2E" letter-spacing="0.06em">FIELDS</text>
<line x1="30" y1="2330" x2="1410" y2="2330" stroke="#333" stroke-width="1"/>
<rect x="28" y="2347" width="388" height="36" rx="4" fill="none" stroke="#F7BB2E" stroke-width="1.5" opacity="0.5"/>
<image x="30" y="2349" width="384" height="32" xlink:href="crops/07-field-text.png" preserveAspectRatio="xMidYMid meet"/>
<circle cx="42" cy="2361" r="12" fill="#F7BB2E"/>
<text x="42" y="2365" text-anchor="middle" font-family="Helvetica, Arial, sans-serif" font-size="11" font-weight="700" fill="#0D0D0D">7</text>
<text x="30" y="2395" font-family="Helvetica, Arial, sans-serif" font-size="11" font-weight="600" fill="#ccc">#7 Field-Text</text>
<text x="30" y="2407" font-family="Helvetica, Arial, sans-serif" font-size="9" fill="#666">Services/starter-package</text>
<rect x="432" y="2347" width="604" height="56" rx="4" fill="none" stroke="#F7BB2E" stroke-width="1.5" opacity="0.5"/>
<image x="434" y="2349" width="600" height="52" xlink:href="crops/08-field-textarea.png" preserveAspectRatio="xMidYMid meet"/>
<circle cx="446" cy="2361" r="12" fill="#F7BB2E"/>
<text x="446" y="2365" text-anchor="middle" font-family="Helvetica, Arial, sans-serif" font-size="11" font-weight="700" fill="#0D0D0D">8</text>
<text x="434" y="2415" font-family="Helvetica, Arial, sans-serif" font-size="11" font-weight="600" fill="#ccc">#8 Field-Textarea</text>
<text x="434" y="2427" font-family="Helvetica, Arial, sans-serif" font-size="9" fill="#666">Services/starter-package</text>
<rect x="1052" y="2347" width="112" height="25" rx="4" fill="none" stroke="#F7BB2E" stroke-width="1.5" opacity="0.5"/>
<image x="1054" y="2349" width="108" height="21" xlink:href="crops/09-field-boolean.png" preserveAspectRatio="xMidYMid meet"/>
<circle cx="1066" cy="2361" r="12" fill="#F7BB2E"/>
<text x="1066" y="2365" text-anchor="middle" font-family="Helvetica, Arial, sans-serif" font-size="11" font-weight="700" fill="#0D0D0D">9</text>
<text x="1054" y="2384" font-family="Helvetica, Arial, sans-serif" font-size="11" font-weight="600" fill="#ccc">#9 Field-Boolean</text>
<text x="1054" y="2396" font-family="Helvetica, Arial, sans-serif" font-size="9" fill="#666">Services/starter-package</text>
<rect x="28" y="2455" width="604" height="21" rx="4" fill="none" stroke="#F7BB2E" stroke-width="1.5" opacity="0.5"/>
<image x="30" y="2457" width="600" height="17" xlink:href="crops/10-field-text-short.png" preserveAspectRatio="xMidYMid meet"/>
<circle cx="42" cy="2469" r="12" fill="#F7BB2E"/>
<text x="42" y="2473" text-anchor="middle" font-family="Helvetica, Arial, sans-serif" font-size="11" font-weight="700" fill="#0D0D0D">10</text>
<text x="30" y="2488" font-family="Helvetica, Arial, sans-serif" font-size="11" font-weight="600" fill="#ccc">#10 Field-Text-Short</text>
<text x="30" y="2500" font-family="Helvetica, Arial, sans-serif" font-size="9" fill="#666">Services/starter-package</text>
<rect x="648" y="2455" width="388" height="36" rx="4" fill="none" stroke="#F7BB2E" stroke-width="1.5" opacity="0.5"/>
<image x="650" y="2457" width="384" height="32" xlink:href="crops/11-field-text-title.png" preserveAspectRatio="xMidYMid meet"/>
<circle cx="662" cy="2469" r="12" fill="#F7BB2E"/>
<text x="662" y="2473" text-anchor="middle" font-family="Helvetica, Arial, sans-serif" font-size="11" font-weight="700" fill="#0D0D0D">11</text>
<text x="650" y="2503" font-family="Helvetica, Arial, sans-serif" font-size="11" font-weight="600" fill="#ccc">#11 Field-Text-Title</text>
<text x="650" y="2515" font-family="Helvetica, Arial, sans-serif" font-size="9" fill="#666">Pages/home</text>
<rect x="28" y="2543" width="604" height="56" rx="4" fill="none" stroke="#F7BB2E" stroke-width="1.5" opacity="0.5"/>
<image x="30" y="2545" width="600" height="52" xlink:href="crops/12-field-textarea-long.png" preserveAspectRatio="xMidYMid meet"/>
<circle cx="42" cy="2557" r="12" fill="#F7BB2E"/>
<text x="42" y="2561" text-anchor="middle" font-family="Helvetica, Arial, sans-serif" font-size="11" font-weight="700" fill="#0D0D0D">12</text>
<text x="30" y="2611" font-family="Helvetica, Arial, sans-serif" font-size="11" font-weight="600" fill="#ccc">#12 Field-Textarea-Long</text>
<text x="30" y="2623" font-family="Helvetica, Arial, sans-serif" font-size="9" fill="#666">Pages/home</text>
<rect x="648" y="2543" width="604" height="233" rx="4" fill="none" stroke="#F7BB2E" stroke-width="1.5" opacity="0.5"/>
<image x="650" y="2545" width="600" height="229" xlink:href="crops/13-field-richtext.png" preserveAspectRatio="xMidYMid meet"/>
<circle cx="662" cy="2557" r="12" fill="#F7BB2E"/>
<text x="662" y="2561" text-anchor="middle" font-family="Helvetica, Arial, sans-serif" font-size="11" font-weight="700" fill="#0D0D0D">13</text>
<text x="650" y="2788" font-family="Helvetica, Arial, sans-serif" font-size="11" font-weight="600" fill="#ccc">#13 Field-Richtext</text>
<text x="650" y="2800" font-family="Helvetica, Arial, sans-serif" font-size="9" fill="#666">Posts/building-data</text>
<rect x="28" y="2828" width="196" height="37" rx="4" fill="none" stroke="#F7BB2E" stroke-width="1.5" opacity="0.5"/>
<image x="30" y="2830" width="192" height="33" xlink:href="crops/14-field-date.png" preserveAspectRatio="xMidYMid meet"/>
<circle cx="42" cy="2842" r="12" fill="#F7BB2E"/>
<text x="42" y="2846" text-anchor="middle" font-family="Helvetica, Arial, sans-serif" font-size="11" font-weight="700" fill="#0D0D0D">14</text>
<text x="30" y="2877" font-family="Helvetica, Arial, sans-serif" font-size="11" font-weight="600" fill="#ccc">#14 Field-Date</text>
<text x="30" y="2889" font-family="Helvetica, Arial, sans-serif" font-size="9" fill="#666">Posts/building-data</text>
<rect x="240" y="2828" width="604" height="102" rx="4" fill="none" stroke="#F7BB2E" stroke-width="1.5" opacity="0.5"/>
<image x="242" y="2830" width="600" height="98" xlink:href="crops/15-field-image.png" preserveAspectRatio="xMidYMid meet"/>
<circle cx="254" cy="2842" r="12" fill="#F7BB2E"/>
<text x="254" y="2846" text-anchor="middle" font-family="Helvetica, Arial, sans-serif" font-size="11" font-weight="700" fill="#0D0D0D">15</text>
<text x="242" y="2942" font-family="Helvetica, Arial, sans-serif" font-size="11" font-weight="600" fill="#ccc">#15 Field-Image</text>
<text x="242" y="2954" font-family="Helvetica, Arial, sans-serif" font-size="9" fill="#666">Posts/building-data</text>
<text x="30" y="3054" font-family="Helvetica, Arial, sans-serif" font-size="18" font-weight="700" fill="#F7BB2E" letter-spacing="0.06em">SETTINGS</text>
<line x1="30" y1="3060" x2="1410" y2="3060" stroke="#333" stroke-width="1"/>
<rect x="28" y="3077" width="516" height="1795" rx="4" fill="none" stroke="#F7BB2E" stroke-width="1.5" opacity="0.5"/>
<image x="30" y="3079" width="512" height="1791" xlink:href="crops/16-panel-general.png" preserveAspectRatio="xMidYMid meet"/>
<circle cx="42" cy="3091" r="12" fill="#F7BB2E"/>
<text x="42" y="3095" text-anchor="middle" font-family="Helvetica, Arial, sans-serif" font-size="11" font-weight="700" fill="#0D0D0D">16</text>
<text x="30" y="4884" font-family="Helvetica, Arial, sans-serif" font-size="11" font-weight="600" fill="#ccc">#16 Panel-General</text>
<text x="30" y="4896" font-family="Helvetica, Arial, sans-serif" font-size="9" fill="#666">Settings/General</text>
<rect x="560" y="3077" width="516" height="1470" rx="4" fill="none" stroke="#F7BB2E" stroke-width="1.5" opacity="0.5"/>
<image x="562" y="3079" width="512" height="1466" xlink:href="crops/17-panel-tools.png" preserveAspectRatio="xMidYMid meet"/>
<circle cx="574" cy="3091" r="12" fill="#F7BB2E"/>
<text x="574" y="3095" text-anchor="middle" font-family="Helvetica, Arial, sans-serif" font-size="11" font-weight="700" fill="#0D0D0D">17</text>
<text x="562" y="4559" font-family="Helvetica, Arial, sans-serif" font-size="11" font-weight="600" fill="#ccc">#17 Panel-Tools</text>
<text x="562" y="4571" font-family="Helvetica, Arial, sans-serif" font-size="9" fill="#666">Settings/Tools</text>
<rect x="28" y="4924" width="516" height="686" rx="4" fill="none" stroke="#F7BB2E" stroke-width="1.5" opacity="0.5"/>
<image x="30" y="4926" width="512" height="682" xlink:href="crops/18-panel-ai.png" preserveAspectRatio="xMidYMid meet"/>
<circle cx="42" cy="4938" r="12" fill="#F7BB2E"/>
<text x="42" y="4942" text-anchor="middle" font-family="Helvetica, Arial, sans-serif" font-size="11" font-weight="700" fill="#0D0D0D">18</text>
<text x="30" y="5622" font-family="Helvetica, Arial, sans-serif" font-size="11" font-weight="600" fill="#ccc">#18 Panel-AI</text>
<text x="30" y="5634" font-family="Helvetica, Arial, sans-serif" font-size="9" fill="#666">Settings/AI</text>
<rect x="560" y="4924" width="516" height="856" rx="4" fill="none" stroke="#F7BB2E" stroke-width="1.5" opacity="0.5"/>
<image x="562" y="4926" width="512" height="852" xlink:href="crops/19-panel-deploy.png" preserveAspectRatio="xMidYMid meet"/>
<circle cx="574" cy="4938" r="12" fill="#F7BB2E"/>
<text x="574" y="4942" text-anchor="middle" font-family="Helvetica, Arial, sans-serif" font-size="11" font-weight="700" fill="#0D0D0D">19</text>
<text x="562" y="5792" font-family="Helvetica, Arial, sans-serif" font-size="11" font-weight="600" fill="#ccc">#19 Panel-Deploy</text>
<text x="562" y="5804" font-family="Helvetica, Arial, sans-serif" font-size="9" fill="#666">Settings/Deploy</text>
<rect x="28" y="5832" width="604" height="243" rx="4" fill="none" stroke="#F7BB2E" stroke-width="1.5" opacity="0.5"/>
<image x="30" y="5834" width="600" height="239" xlink:href="crops/20-panel-team.png" preserveAspectRatio="xMidYMid meet"/>
<circle cx="42" cy="5846" r="12" fill="#F7BB2E"/>
<text x="42" y="5850" text-anchor="middle" font-family="Helvetica, Arial, sans-serif" font-size="11" font-weight="700" fill="#0D0D0D">20</text>
<text x="30" y="6087" font-family="Helvetica, Arial, sans-serif" font-size="11" font-weight="600" fill="#ccc">#20 Panel-Team</text>
<text x="30" y="6099" font-family="Helvetica, Arial, sans-serif" font-size="9" fill="#666">Settings/Team</text>
<rect x="648" y="5832" width="516" height="709" rx="4" fill="none" stroke="#F7BB2E" stroke-width="1.5" opacity="0.5"/>
<image x="650" y="5834" width="512" height="705" xlink:href="crops/21-panel-mcp.png" preserveAspectRatio="xMidYMid meet"/>
<circle cx="662" cy="5846" r="12" fill="#F7BB2E"/>
<text x="662" y="5850" text-anchor="middle" font-family="Helvetica, Arial, sans-serif" font-size="11" font-weight="700" fill="#0D0D0D">21</text>
<text x="650" y="6553" font-family="Helvetica, Arial, sans-serif" font-size="11" font-weight="600" fill="#ccc">#21 Panel-MCP</text>
<text x="650" y="6565" font-family="Helvetica, Arial, sans-serif" font-size="9" fill="#666">Settings/MCP</text>
<rect x="28" y="6593" width="516" height="421" rx="4" fill="none" stroke="#F7BB2E" stroke-width="1.5" opacity="0.5"/>
<image x="30" y="6595" width="512" height="417" xlink:href="crops/22-panel-email.png" preserveAspectRatio="xMidYMid meet"/>
<circle cx="42" cy="6607" r="12" fill="#F7BB2E"/>
<text x="42" y="6611" text-anchor="middle" font-family="Helvetica, Arial, sans-serif" font-size="11" font-weight="700" fill="#0D0D0D">22</text>
<text x="30" y="7026" font-family="Helvetica, Arial, sans-serif" font-size="11" font-weight="600" fill="#ccc">#22 Panel-Email</text>
<text x="30" y="7038" font-family="Helvetica, Arial, sans-serif" font-size="9" fill="#666">Settings/Email</text>
<text x="30" y="7138" font-family="Helvetica, Arial, sans-serif" font-size="18" font-weight="700" fill="#F7BB2E" letter-spacing="0.06em">MEDIA</text>
<line x1="30" y1="7144" x2="1410" y2="7144" stroke="#333" stroke-width="1"/>
<rect x="28" y="7161" width="604" height="278" rx="4" fill="none" stroke="#F7BB2E" stroke-width="1.5" opacity="0.5"/>
<image x="30" y="7163" width="600" height="274" xlink:href="crops/23-medialibrary.png" preserveAspectRatio="xMidYMid meet"/>
<circle cx="42" cy="7175" r="12" fill="#F7BB2E"/>
<text x="42" y="7179" text-anchor="middle" font-family="Helvetica, Arial, sans-serif" font-size="11" font-weight="700" fill="#0D0D0D">23</text>
<text x="30" y="7451" font-family="Helvetica, Arial, sans-serif" font-size="11" font-weight="600" fill="#ccc">#23 MediaLibrary</text>
<text x="30" y="7463" font-family="Helvetica, Arial, sans-serif" font-size="9" fill="#666">Media</text>
<text x="30" y="7563" font-family="Helvetica, Arial, sans-serif" font-size="18" font-weight="700" fill="#F7BB2E" letter-spacing="0.06em">CARDS</text>
<line x1="30" y1="7569" x2="1410" y2="7569" stroke="#333" stroke-width="1"/>
<rect x="28" y="7586" width="476" height="163" rx="4" fill="none" stroke="#F7BB2E" stroke-width="1.5" opacity="0.5"/>
<image x="30" y="7588" width="472" height="159" xlink:href="crops/24-sitecard-freelancer.png" preserveAspectRatio="xMidYMid meet"/>
<circle cx="42" cy="7600" r="12" fill="#F7BB2E"/>
<text x="42" y="7604" text-anchor="middle" font-family="Helvetica, Arial, sans-serif" font-size="11" font-weight="700" fill="#0D0D0D">24</text>
<text x="30" y="7761" font-family="Helvetica, Arial, sans-serif" font-size="11" font-weight="600" fill="#ccc">#24 SiteCard-Freelancer</text>
<text x="30" y="7773" font-family="Helvetica, Arial, sans-serif" font-size="9" fill="#666">Sites</text>
</svg>